<?xml version="1.0" standalone="no"?>
<!DOCTYPE svg PUBLIC "-//W3C//DTD SVG 1.1//EN" "http://www.w3.org/Graphics/SVG/1.1/DTD/svg11.dtd" >
<svg xmlns="http://www.w3.org/2000/svg">
<metadata>
Created by FontForge 20120731 at Sat Oct 15 20:56:18 2016
 By admin
</metadata>
<defs>
<font id="iconfont" horiz-adv-x="1024" >
  <font-face 
    font-family="iconfont"
    font-weight="500"
    font-stretch="normal"
    units-per-em="1024"
    panose-1="2 0 6 3 0 0 0 0 0 0"
    ascent="896"
    descent="-128"
    x-height="792"
    bbox="34 -128 1026 896"
    underline-thickness="50"
    underline-position="-100"
    unicode-range="U+0078-E6D8"
  />
<missing-glyph horiz-adv-x="374" 
d="M34 0v682h272v-682h-272zM68 34h204v614h-204v-614z" />
    <glyph glyph-name=".notdef" horiz-adv-x="374" 
d="M34 0v682h272v-682h-272zM68 34h204v614h-204v-614z" />
    <glyph glyph-name=".null" horiz-adv-x="0" 
 />
    <glyph glyph-name="nonmarkingreturn" horiz-adv-x="341" 
 />
    <glyph glyph-name="x" unicode="x" horiz-adv-x="1001" 
d="M281 543q-27 -1 -53 -1h-83q-18 0 -36.5 -6t-32.5 -18.5t-23 -32t-9 -45.5v-76h912v41q0 16 -0.5 30t-0.5 18q0 13 -5 29t-17 29.5t-31.5 22.5t-49.5 9h-133v-97h-438v97zM955 310v-52q0 -23 0.5 -52t0.5 -58t-10.5 -47.5t-26 -30t-33 -16t-31.5 -4.5q-14 -1 -29.5 -0.5
t-29.5 0.5h-32l-45 128h-439l-44 -128h-29h-34q-20 0 -45 1q-25 0 -41 9.5t-25.5 23t-13.5 29.5t-4 30v167h911zM163 247q-12 0 -21 -8.5t-9 -21.5t9 -21.5t21 -8.5q13 0 22 8.5t9 21.5t-9 21.5t-22 8.5zM316 123q-8 -26 -14 -48q-5 -19 -10.5 -37t-7.5 -25t-3 -15t1 -14.5
t9.5 -10.5t21.5 -4h37h67h81h80h64h36q23 0 34 12t2 38q-5 13 -9.5 30.5t-9.5 34.5q-5 19 -11 39h-368zM336 498v228q0 11 2.5 23t10 21.5t20.5 15.5t34 6h188q31 0 51.5 -14.5t20.5 -52.5v-227h-327z" />
    <glyph glyph-name="uniE600" unicode="&#xe600;" 
d="M512 658q56 0 107 -22q49 -20 87 -58t58 -87q22 -51 22 -107t-22 -107q-20 -49 -58 -86.5t-87 -58.5q-51 -22 -107 -22t-107 22q-49 21 -87 58.5t-58 86.5q-22 51 -22 107t22 107q20 49 58 87t87 58q51 22 107 22zM512 710q-89 0 -164 -43.5t-118.5 -118.5t-43.5 -164
t43.5 -164t118.5 -118.5t164 -43.5t164 43.5t118.5 118.5t43.5 164t-43.5 164t-118.5 118.5t-164 43.5z" />
    <glyph glyph-name="uniE601" unicode="&#xe601;" 
d="M840 205q-22 -66 -57 -117q-16 -24 -26.5 -37.5t-27 -30t-34 -24.5t-37.5 -8q-26 -1 -64.5 15.5t-70.5 16.5q-33 0 -71.5 -16.5t-62.5 -16.5q-19 -1 -37 7t-35 25.5t-28.5 32t-28.5 38.5q-37 54 -61 123.5t-24 149t34 138.5q26 47 71.5 74.5t97.5 28.5q29 0 75 -18
t59 -18q12 0 39 11t58.5 20.5t59.5 6.5q19 -1 40.5 -5.5t54.5 -24t54 -51.5q-89 -61 -88 -156q0 -34 12 -64t26.5 -47t33 -30.5t26.5 -17.5t12 -5zM627 672q50 61 43 131q-31 -1 -65 -18.5t-56 -43.5q-22 -25 -34.5 -59t-8.5 -67q33 -2 66 14.5t55 42.5z" />
    <glyph glyph-name="uniE602" unicode="&#xe602;" 
d="M449 399h-281v233l281 39v-272zM449 96l-281 38v230h281v-268zM855 399h-375v276l375 52v-328zM855 40l-375 51v273h375v-324z" />
    <glyph glyph-name="uniE603" unicode="&#xe603;" 
d="M512 708q-88 0 -162.5 -43.5t-118 -118t-43.5 -162.5t43.5 -162.5t118 -118t162.5 -43.5t162.5 43.5t118 118t43.5 162.5t-43.5 162.5t-118 118t-162.5 43.5zM512 106q-115 0 -196.5 81.5t-81.5 196.5t81.5 196.5t196.5 81.5t196.5 -81.5t81.5 -196.5t-81.5 -196.5
t-196.5 -81.5zM628 384h-116v162q0 10 -7 16.5t-16.5 6.5t-16 -6.5t-6.5 -16.5v-185q0 -10 6.5 -16.5t16.5 -6.5h139q10 0 16.5 6.5t6.5 16t-6.5 16.5t-16.5 7z" />
    <glyph glyph-name="uniE604" unicode="&#xe604;" 
d="M804 150l-124 123q51 69 51 154q0 108 -77 184.5t-185 76.5t-184.5 -76.5t-76.5 -184.5t76.5 -185t184.5 -77q85 0 154 51l123 -124q12 -12 29 -12t29 12t12 29t-12 29zM282 426.5q0 77.5 55 132.5t132.5 55t132.5 -55t55 -132.5t-55 -132.5t-132.5 -55t-132.5 55
t-55 132.5z" />
    <glyph glyph-name="uniE605" unicode="&#xe605;" 
d="M628 227q-19 0 -32 14q-34 38 -84 38t-84 -38q-12 -13 -29.5 -14t-30.5 11t-14 30.5t11 31.5q59 67 147 67t147 -67q12 -14 11.5 -32t-14.5 -30q-12 -11 -28 -11zM722 336q-17 0 -30 13q-74 76 -180 76t-180 -76q-13 -13 -30.5 -13t-30 13t-12.5 31t13 31q99 101 240 101
t241 -101q12 -13 12 -31t-12.5 -31t-30.5 -13zM817 445q-17 0 -30 12q-56 55 -127 84t-148 29t-148.5 -29t-126.5 -84q-13 -12 -30.5 -12t-30 13.5t-12 31.5t13.5 30q67 67 153.5 102.5t180.5 35.5t180 -35.5t154 -102.5q13 -12 13.5 -30t-11.5 -32q-13 -13 -31 -13z
M461 163q0 -22 15 -37.5t36 -15.5t36.5 15.5t15.5 37.5t-15.5 37.5t-36.5 15.5t-36 -15.5t-15 -37.5z" />
    <glyph glyph-name="uniE606" unicode="&#xe606;" 
d="M553 485l89 -90l-214 -214l-119 -61l-32 31l62 120zM709 462l54 54q18 19 18 45t-18.5 44.5t-44.5 18.5t-44 -18l-54 -54l-23 22q-9 9 -22 9t-22 -9t-9 -22t9 -23l134 -134q9 -9 22 -9t22.5 9.5t9.5 22.5t-10 22z" />
    <glyph glyph-name="uniE607" unicode="&#xe607;" 
d="M369 635h286v-72h-286v72zM763 527h-502q-14 0 -24.5 -10.5t-10.5 -25.5v-179q0 -14 10.5 -24.5t24.5 -10.5h108v-144h286v144h108q14 0 24.5 10.5t10.5 24.5v179q0 15 -10.5 25.5t-24.5 10.5zM619 169h-214v179h214v-179zM771 473.5q0 -10.5 -8 -18t-18.5 -7.5t-18 7.5
t-7.5 18t7.5 18t18 7.5t18.5 -7.5t8 -18z" />
    <glyph glyph-name="uniE608" unicode="&#xe608;" 
d="M399 609l281 -225l-281 -225v450z" />
    <glyph glyph-name="uniE609" unicode="&#xe609;" 
d="M287 496l225 -281l226 281h-451z" />
    <glyph glyph-name="uniE60A" unicode="&#xe60a;" 
d="M784 458q0 113 -80 192.5t-192 79.5t-192 -79.5t-80 -192.5q0 -106 71.5 -183.5t176.5 -87.5v-1h-1v-49h-99q-10 0 -17 -7.5t-7 -17.5t7 -17.5t17 -7.5h99v-24q0 -11 7.5 -18t17.5 -7t17.5 7t7.5 18v24h99q10 0 17 7.5t7 17.5t-7 17.5t-17 7.5h-99v49h-1v1
q105 10 176.5 87.5t71.5 183.5zM512 236q-92 0 -157 65t-65 157t65 157.5t157 65.5t157 -65.5t65 -157.5t-65 -157t-157 -65z" />
    <glyph glyph-name="uniE60B" unicode="&#xe60b;" 
d="M832 686v3q-1 2 -3 5l-1 1q0 1 -1 2v0q-1 1 -5 4l-3 2q-5 2 -10 2h-173q-11 0 -18 -7t-7 -17.5t7 -17.5t18 -7h107l-118 -104q-72 54 -162 54q-113 0 -192.5 -79.5t-79.5 -192t79.5 -192t192 -79.5t192 79.5t79.5 192.5q0 105 -72 184l122 107v-94q0 -10 7 -17t17.5 -7
t17.5 7t7 17v149q0 1 -1 5zM685 335q0 -92 -65 -157.5t-157 -65.5t-157.5 65.5t-65.5 157.5t65.5 157t157.5 65t157 -65t65 -157z" />
    <glyph glyph-name="uniE60C" unicode="&#xe60c;" horiz-adv-x="1026" 
d="M186 186q92 65 312.5 221.5t340.5 241.5v-463h-653zM593 286l-21 24q-14 16 -23 25t-18 17q-4 3 -9.5 4t-14 1.5t-12.5 0.5q1 -7 0.5 -14t0.5 -14.5t4 -11.5q12 -14 87 -95q41 41 111.5 109.5t94.5 92.5q-18 15 -42 34q-4 -4 -158 -173z" />
    <glyph glyph-name="uniE60D" unicode="&#xe60d;" 
d="M585 538q-5 5 -13 5t-14 -5l-256 -257q-3 -3 -5 -7l-49 -129q-4 -12 4 -21q6 -5 14 -5q3 0 7 1l129 49q4 2 7 5l257 256q5 6 5 14t-5 13zM760 606l-26 26q-17 17 -40.5 17t-40.5 -17l-27 -27q-6 -5 -6 -13t6 -14l80 -80q6 -6 14 -6t13 6l27 27q17 17 17 40.5t-17 40.5z
" />
    <glyph glyph-name="uniE60E" unicode="&#xe60e;" 
d="M512 63q-87 0 -161 43t-117 117t-43 161t43 161t117 117t161 43t161 -43t117 -117t43 -161t-43 -161t-117 -117t-161 -43zM512 659q-114 0 -194.5 -80.5t-80.5 -194.5t80.5 -194.5t194.5 -80.5t194.5 80.5t80.5 194.5t-80.5 194.5t-194.5 80.5zM512 200q-76 0 -130 54
t-54 130t54 130t130 54t130 -54t54 -130t-54 -130t-130 -54zM512 200z" />
    <glyph glyph-name="uniE60F" unicode="&#xe60f;" horiz-adv-x="1025" 
d="M725 441q56 -4 95.5 -45.5t39.5 -98.5q0 -60 -43 -102.5t-103 -42.5h-376q-72 0 -123 51t-51 123q0 66 45 115.5t110 56.5q29 53 80.5 85.5t112.5 32.5q79 0 138.5 -49.5t74.5 -125.5z" />
    <glyph glyph-name="uniE610" unicode="&#xe610;" 
d="M512 688q-108 0 -184.5 -28t-76.5 -67v-69q0 -40 76.5 -67.5t184.5 -27.5t184.5 27.5t76.5 67.5v69q0 39 -76.5 67t-184.5 28zM512 385q-108 0 -184.5 28t-76.5 67v-130q0 -39 76.5 -67t184.5 -28t184.5 28t76.5 67v130q0 -39 -76.5 -67t-184.5 -28zM512 212
q-108 0 -184.5 27.5t-76.5 67.5v-132q0 -39 76.5 -67t184.5 -28t184.5 28t76.5 67v132q0 -40 -76.5 -67.5t-184.5 -27.5z" />
    <glyph glyph-name="uniE611" unicode="&#xe611;" 
d="M142 736zM167 736zM191 736zM216 736zM241 736zM265 736zM290 736zM315 736zM339 736zM364 736zM389 736zM413 736zM438 736zM463 736zM487 736zM512 736zM537 736zM561 736zM586 736zM611 736zM635 736zM660 736zM685 736zM709 736zM734 736zM759 736zM783 736zM808 736
zM833 736zM857 736zM882 736zM117 711zM117 687zM117 662zM117 637zM117 613zM117 588zM117 563zM117 539zM117 514zM117 489zM117 465zM117 440zM117 415zM117 391zM117 366zM117 341zM117 317zM117 292zM117 267zM117 243zM117 218zM117 193zM117 169zM117 144zM117 119z
M117 95zM117 70zM117 45zM117 21zM117 -4zM117 -29zM693 45q20 37 31.5 75t14.5 78t-10.5 74.5t-41.5 61.5t-80.5 42t-125.5 13v-171l-259 259l259 259v-167q87 2 153.5 -21.5t104 -64.5t54.5 -95.5t9.5 -113t-35.5 -118.5t-74 -111z" />
    <glyph glyph-name="uniE612" unicode="&#xe612;" 
d="M553 260v34q34 19 57.5 62t23.5 89v33q0 11 -1 30.5t-3 29.5t-6.5 25t-10.5 22.5t-15 17.5t-21 14.5t-28.5 7.5t-36.5 3t-36.5 -3t-28.5 -7.5t-21 -14.5t-15 -17.5t-10.5 -22.5t-6.5 -25t-3 -29.5t-1 -30.5v-33q0 -46 23.5 -89t57.5 -62v-34q-104 -8 -174 -54t-70 -107
h570q0 61 -70 107t-174 54z" />
    <glyph glyph-name="uniE613" unicode="&#xe613;" 
d="M559 560v167l258 -258l-258 -259v171q-73 2 -125.5 -13t-80.5 -42t-41.5 -61.5t-10.5 -74.5t14.5 -78t31.5 -74q-46 50 -74 110t-35 118.5t9.5 112.5t54 95t104 64.5t153.5 21.5z" />
    <glyph glyph-name="uniE614" unicode="&#xe614;" 
d="M789 663q18 0 30 -14q7 -7 10 -14t3 -10v-3q0 -6 -1 -8.5t-5 -5.5t-7 -6q-12 -15 -30 -15h-556q-18 0 -30 15q-3 3 -7 6t-5 5.5t-1 8.5q-2 10 13 27q12 14 30 14h556zM789 414q18 0 30 -15q3 -3 7 -6t5 -5.5t1 -8.5v-7q0 -7 -1 -9t-5 -5t-7 -6q-12 -15 -30 -15h-556
q-18 0 -30 15q-3 3 -7 6t-5 5t-1 9v7q0 6 1 8.5t5 5.5t7 6q12 15 30 15h556zM789 163q18 0 30 -15q3 -3 7 -5.5t5 -5t1 -8.5v-7q0 -7 -1 -9.5t-5 -5t-7 -5.5q-12 -15 -30 -15h-556q-18 0 -30 15q-3 3 -7 5.5t-5 5t-1 9.5v7q0 6 1 8.5t5 5t7 5.5q12 15 30 15h556zM789 163z
" />
    <glyph glyph-name="uniE615" unicode="&#xe615;" 
d="M332 577q0 -6 -3.5 -9.5t-9.5 -3.5h-94q-5 0 -9 3.5t-4 9.5v94q0 5 4 9t9 4h94q6 0 9.5 -4t3.5 -9v-94zM572 577q0 -6 -3.5 -9.5t-9.5 -3.5h-94q-5 0 -9 3.5t-4 9.5v94q0 5 4 9t9 4h94q6 0 9.5 -4t3.5 -9v-94zM812 577q0 -6 -3.5 -9.5t-9.5 -3.5h-94q-5 0 -9 3.5t-4 9.5
v94q0 5 4 9t9 4h94q6 0 9.5 -4t3.5 -9v-94zM332 337q0 -6 -3.5 -9.5t-9.5 -3.5h-94q-5 0 -9 3.5t-4 9.5v94q0 5 4 9t9 4h94q6 0 9.5 -4t3.5 -9v-94zM572 337q0 -6 -3.5 -9.5t-9.5 -3.5h-94q-5 0 -9 3.5t-4 9.5v94q0 5 4 9t9 4h94q6 0 9.5 -4t3.5 -9v-94zM812 337
q0 -6 -3.5 -9.5t-9.5 -3.5h-94q-5 0 -9 3.5t-4 9.5v94q0 5 4 9t9 4h94q6 0 9.5 -4t3.5 -9v-94zM332 97q0 -6 -3.5 -9.5t-9.5 -3.5h-94q-5 0 -9 3.5t-4 9.5v94q0 5 4 9t9 4h94q6 0 9.5 -4t3.5 -9v-94zM572 97q0 -6 -3.5 -9.5t-9.5 -3.5h-94q-5 0 -9 3.5t-4 9.5v94q0 5 4 9
t9 4h94q6 0 9.5 -4t3.5 -9v-94zM812 97q0 -6 -3.5 -9.5t-9.5 -3.5h-94q-5 0 -9 3.5t-4 9.5v94q0 5 4 9t9 4h94q6 0 9.5 -4t3.5 -9v-94z" />
    <glyph glyph-name="uniE616" unicode="&#xe616;" 
d="M688 508l-1 -1l-1 -1q-9 -65 -59 -108.5t-115 -43.5t-115 43.5t-60 108.5v1l-1 1q-14 8 -14 23q0 11 8 19t19.5 8t19.5 -8t8 -19q0 -12 -10 -21l-1 -1v-1q9 -55 50 -90t96 -35t96 35t50 90v1l-1 1q-10 9 -10 21q0 11 8 19t19.5 8t19.5 -8t8 -19q0 -15 -14 -23zM740 670
h-456q-24 0 -41 -17t-17 -41v-456q0 -24 17 -41t41 -17h456q24 0 41 17t17 41v456q0 24 -17 41t-41 17z" />
    <glyph glyph-name="uniE617" unicode="&#xe617;" 
d="M648 683q32 0 61.5 -12t53.5 -36t36 -53.5t12 -61.5t-12.5 -62t-35.5 -53l-81 -82q-3 -2 -7 -6q-23 -21 -51 -31.5t-58 -10.5q-37 0 -70 16q-25 12 -45 32t-32 45q16 16 39 16q7 0 16 -2q13 -23 36 -36q26 -16 56 -16q22 0 41.5 8t35.5 24l82 81q15 16 23 36t8 41t-8 41
t-23.5 35.5t-35.5 23.5t-41 8t-41 -8t-36 -23l-57 -57q-27 7 -56 7h-14q5 4 7 7l82 81q23 23 53 35.5t62 12.5zM458 493q37 0 70 -16q25 -12 45 -32t32 -45q-16 -16 -39 -16q-8 0 -16 2q-13 23 -36 36q-26 16 -56 16q-22 0 -41.5 -8t-35.5 -24l-82 -81q-15 -16 -23 -36
t-8 -41t8 -41t23.5 -35.5t35.5 -23.5t41 -8t41 8t36 23l57 57q27 -7 56 -7h13q-4 -4 -6 -7l-82 -81q-23 -24 -53 -36t-62 -12t-62 12.5t-53 35.5q-24 24 -36 53.5t-12 61.5t12 62t36 53l81 82q3 2 8 6q22 21 50 31.5t58 10.5z" />
    <glyph glyph-name="uniE618" unicode="&#xe618;" 
d="M716 547l122 122l-41 41l-122 -122h-285v122h-82v-122h-122v-82h122v-326h326v-122h82v122h122v82h-122v285zM390 506h203l-203 -203v203zM431 262l203 203v-203h-203z" />
    <glyph glyph-name="uniE61A" unicode="&#xe61a;" 
d="M257 664q11 0 19 -7l160 -160v116q0 11 7.5 18.5t18 7.5t18 -7.5t7.5 -18.5v-178q0 -10 -8 -18t-18 -8h-178q-11 0 -18.5 7.5t-7.5 18t7.5 18t18.5 7.5h116l-160 161q-7 7 -7 18t7 18t18 7zM563 359h178q11 0 18.5 -7.5t7.5 -18t-7.5 -18t-18.5 -7.5h-116l159 -161
q8 -7 8 -17.5t-7.5 -18t-17.5 -7.5q-11 0 -19 7l-160 160v-116q0 -11 -7.5 -18.5t-18 -7.5t-18 7.5t-7.5 18.5v178q0 10 8 18t18 8z" />
    <glyph glyph-name="uniE61B" unicode="&#xe61b;" 
d="M733 292v203q0 91 -65 156t-156 65t-156 -65t-65 -156v-203l-92 -129h626zM512 52q31 0 52.5 21.5t21.5 52.5h-148q0 -31 21.5 -52.5t52.5 -21.5z" />
    <glyph glyph-name="uniE61C" unicode="&#xe61c;" 
d="M427 678q-80 -66 -134.5 -118t-121.5 -125q-10 -14 -13.5 -34.5t0.5 -35.5t13 -15h85v-212q0 -84 37 -84h132v211h169v-211h122q20 0 33.5 20.5t13.5 63.5v212h84q13 0 18.5 16t0.5 36.5t-19 32.5q-106 108 -266 240q-35 28 -62 35.5t-48 -0.5t-44 -32z" />
    <glyph glyph-name="uniE61D" unicode="&#xe61d;" 
d="M341 683v-598l470 299z" />
    <glyph glyph-name="uniE61E" unicode="&#xe61e;" 
d="M717 560q40 -40 62 -92q23 -54 23 -113t-23 -113q-22 -52 -62 -92t-92 -62q-54 -23 -113 -23t-113 23q-52 22 -92 62t-62 92q-23 54 -23 113t23 113q22 52 62 92q9 8 20.5 8t20.5 -8.5t9 -20.5t-9 -20q-32 -32 -50 -74q-18 -43 -18 -90t18 -90q18 -42 50 -74t74 -50
q43 -18 90 -18t90 18q42 18 74 50t50 74q18 43 18 90t-18 90q-18 42 -50 74q-9 8 -9 20t8.5 20.5t20.5 8.5t21 -8zM512 703q12 0 20.5 -8.5t8.5 -20.5v-290q0 -12 -8.5 -20.5t-20.5 -8.5t-20.5 8.5t-8.5 20.5v290q0 12 8.5 20.5t20.5 8.5z" />
    <glyph glyph-name="uniE61F" unicode="&#xe61f;" 
d="M256 128l363 256l-363 256v-512zM683 640v-512h85v512h-85z" />
    <glyph glyph-name="uniE620" unicode="&#xe620;" 
d="M256 640h85v-512h-85v512zM405 384l363 -256v512z" />
    <glyph glyph-name="uniE621" unicode="&#xe621;" 
d="M256 640h512v-512h-512v512z" />
    <glyph glyph-name="uniE622" unicode="&#xe622;" 
d="M789 384q0 56 -29 102t-77 70v-344q48 24 77 70t29 102zM213 512v-256h171l213 -213v682l-213 -213h-171z" />
    <glyph glyph-name="uniE623" unicode="&#xe623;" 
d="M299 512v-256h170l214 -213v682l-214 -213h-170z" />
    <glyph glyph-name="uniE624" unicode="&#xe624;" 
d="M681 384q0 49 -26 89.5t-68 61.5v-83l92 -92q2 12 2 24zM774 384q0 -50 -20 -99l57 -57q39 74 39 156q0 119 -74.5 211t-188.5 118v-78q82 -24 135 -93.5t52 -157.5zM222 722l-48 -48l178 -178h-178v-225h150l188 -187v252l160 -159q-41 -31 -85 -45v-77q77 18 138 68
l77 -77l47 48zM512 684l-78 -78l78 -79v157z" />
    <glyph glyph-name="uniE625" unicode="&#xe625;" 
d="M174 496v-224h150l188 -188v600l-188 -188h-150zM681 384q0 49 -26 89.5t-68 61.5v-302q42 21 68 61.5t26 89.5zM587 713v-77q82 -25 134.5 -94.5t52.5 -157.5t-52.5 -157.5t-134.5 -94.5v-77q114 26 188.5 118t74.5 211t-74.5 211t-188.5 118z" />
    <glyph glyph-name="uniE626" unicode="&#xe626;" 
d="M855 358h-686q-11 0 -18.5 7.5t-7.5 18.5t7.5 18.5t18.5 7.5h686q11 0 18.5 -7.5t7.5 -18.5t-7.5 -18.5t-18.5 -7.5zM776 41h-159q-10 0 -18 8t-8 19t8 18.5t18 7.5h159q11 0 18.5 7.5t7.5 18.5v132q0 11 7.5 19t18.5 8t19 -8t8 -19v-132q0 -32 -23.5 -55.5t-55.5 -23.5z
M380 41h-132q-32 0 -55.5 23.5t-23.5 55.5v132q0 11 8 19t19 8t18.5 -8t7.5 -19v-132q0 -11 7.5 -18.5t18.5 -7.5h132q11 0 19 -7.5t8 -18.5t-8 -19t-19 -8zM196 489q-11 0 -19 8t-8 19v132q0 32 23.5 55.5t55.5 23.5h132q11 0 19 -8t8 -19t-8 -18.5t-19 -7.5h-132
q-11 0 -18.5 -7.5t-7.5 -18.5v-132q0 -11 -7.5 -19t-18.5 -8zM828 489q-11 0 -18.5 8t-7.5 19v132q0 11 -7.5 18.5t-18.5 7.5h-159q-10 0 -18 7.5t-8 18.5t8 19t18 8h159q32 0 55.5 -23.5t23.5 -55.5v-132q0 -11 -8 -19t-19 -8z" />
    <glyph glyph-name="uniE627" unicode="&#xe627;" 
d="M512 662q-88 0 -163 -43.5t-118 -118t-43 -162.5t43 -163t118 -118.5t163 -43.5t163 43.5t118 118.5t43 163t-43 162.5t-118 118t-163 43.5zM512 77q-108 0 -184.5 76.5t-76.5 184.5t76.5 184t184.5 76t184.5 -76t76.5 -184t-76.5 -184.5t-184.5 -76.5zM818 547
q18 32 18 69q0 57 -40.5 98t-98.5 41q-68 0 -110 -54q71 -15 131 -55t100 -99zM437 701q-42 54 -110 54q-58 0 -98.5 -41t-40.5 -98q0 -37 18 -69q40 59 100 99t131 55zM512 338v185h-46v-232h185v47h-139z" />
    <glyph glyph-name="uniE628" unicode="&#xe628;" 
d="M263 724zM725 388q18 0 30 -12.5t12 -29.5v-253q0 -17 -12 -29.5t-30 -12.5h-420q-18 0 -30 12.5t-12 29.5v253q0 17 12 29.5t30 12.5h14v140q0 81 57.5 138.5t138.5 57.5t138.5 -57.5t57.5 -138.5q0 -12 -8 -20t-20 -8h-28q-11 0 -19.5 8t-8.5 20q0 46 -33 79t-79 33
t-79 -33t-33 -79v-140h322z" />
    <glyph glyph-name="uniE629" unicode="&#xe629;" 
d="M724 77h-424q-33 0 -56.5 23t-23.5 56v410q0 33 23.5 56.5t56.5 23.5h13v-29q-38 -1 -51 -14t-13 -52v-379q0 -39 13.5 -52.5t52.5 -13.5h394q38 0 52 13.5t14 52.5v379q0 39 -13 52t-51 14v29h13q33 0 56.5 -23.5t23.5 -56.5v-410q0 -33 -23.5 -56t-56.5 -23zM653 208
h-282q-8 0 -14 4.5t-6 10.5t6 10t14 4h282q8 0 14 -4t6 -10t-6 -10.5t-14 -4.5zM653 325h-282q-8 0 -14 4t-6 10t6 10.5t14 4.5h282q8 0 14 -4.5t6 -10.5t-6 -10t-14 -4zM653 442h-282q-8 0 -14 4t-6 10t6 10.5t14 4.5h282q8 0 14 -4.5t6 -10.5t-6 -10t-14 -4zM651.5 560
q-8.5 0 -14.5 6t-6 14v92q0 8 6 13.5t14.5 5.5t14 -5.5t5.5 -13.5v-92q0 -8 -5.5 -14t-14 -6zM432 646h160v-29h-160v29zM372.5 560q-8.5 0 -14 6t-5.5 14v92q0 8 5.5 13.5t14 5.5t14.5 -5.5t6 -13.5v-92q0 -8 -6 -14t-14.5 -6z" />
    <glyph glyph-name="uniE62A" unicode="&#xe62a;" 
d="M563 359q10 0 18 -8l160 -160v117q0 10 7.5 17.5t18 7.5t18 -7.5t7.5 -17.5v-178q0 -11 -7.5 -18.5t-18.5 -7.5h-178q-10 0 -17.5 7.5t-7.5 18t7.5 18t17.5 7.5h117l-160 160q-8 8 -8 18q0 11 7.5 18.5t18.5 7.5zM257 664h179q10 0 17.5 -7.5t7.5 -18t-7.5 -18
t-17.5 -7.5h-117l160 -160q8 -7 8 -17.5t-8 -18t-18 -7.5t-18 7l-160 160v-117q0 -10 -7.5 -17.5t-18 -7.5t-18 7.5t-7.5 17.5v179q0 10 7.5 17.5t17.5 7.5z" />
    <glyph glyph-name="uniE62C" unicode="&#xe62c;" 
d="M450 611h-185q-26 0 -44 -18t-18 -44v-370q0 -26 18 -44t44 -18h494q26 0 44 18t18 44v309q0 25 -18 43t-44 18h-247z" />
    <glyph glyph-name="uniE62D" unicode="&#xe62d;" 
d="M230 666q233 0 398.5 -165.5t165.5 -398.5h-88q0 197 -139.5 336t-336.5 139v89zM230 489q162 0 275.5 -113.5t113.5 -273.5h-88q0 123 -88 211.5t-213 88.5v87zM315 270q34 0 59 -24.5t25 -60.5q0 -34 -25 -58.5t-59 -24.5t-59.5 24.5t-25.5 58.5q0 36 25.5 60.5
t59.5 24.5z" />
    <glyph glyph-name="uniE62E" unicode="&#xe62e;" 
d="M766 504l-173 197q-7 8 -18 8h-250q-30 0 -51.5 -21.5t-21.5 -51.5v-504q0 -30 21.5 -51.5t51.5 -21.5h374q30 0 51.5 21.5t21.5 51.5v354q0 12 -6 18zM598 630l97 -110h-68q-12 0 -20.5 8.5t-8.5 20.5v81zM699 102h-374q-12 0 -20.5 9t-8.5 21v504q0 12 8.5 21t20.5 9
h229v-117q0 -30 21.5 -51.5t51.5 -21.5h101v-344q0 -12 -8.5 -21t-20.5 -9z" />
    <glyph glyph-name="uniE62F" unicode="&#xe62f;" horiz-adv-x="1025" 
d="M396 185.5q0 20.5 -14.5 35t-35 14.5t-35 -14.5t-14.5 -35t14.5 -35t35 -14.5t35 14.5t14.5 35zM247 384h149v99h-61q-5 0 -9 -3l-75 -76q-4 -3 -4 -8v-12zM744 185.5q0 20.5 -15 35t-35 14.5t-34.5 -14.5t-15 -35t14.5 -35t35 -14.5t35 14.5t15 35zM843 607v-397
q0 -6 -1.5 -10.5t-5 -7t-6.5 -4t-9.5 -2.5t-8.5 -1h-10h-9q0 -41 -29 -70t-70 -29t-70 29t-29 70h-149q0 -41 -29 -70t-70.5 -29t-70.5 29t-29 70h-25h-8h-10q-3 0 -9 1t-9 2.5t-6.5 4t-5 7t-1.5 10.5q0 10 7 17.5t18 7.5v124q0 3 -0.5 13.5t0 15t1 13.5t2.5 14t5.5 12
t8.5 12l77 76q7 8 19.5 13t22.5 5h62v74q0 11 7.5 18t17.5 7h397q10 0 17.5 -7t7.5 -18z" />
    <glyph glyph-name="uniE630" unicode="&#xe630;" 
d="M664 409q27 0 46 19t19 46t-19 46t-46 19t-46 -19t-19 -46t19 -46t46 -19zM778 626h-532q-16 0 -27 -11.5t-11 -26.5v-445q0 -16 11 -27t27 -11h532q16 0 27 11t11 27v445q0 15 -11 26.5t-27 11.5zM638 358q-7 8 -17 8q-8 0 -18 -8l-25 -21q-9 -7 -16 -7q-8 0 -15 6l-5 5
l-73 80q-9 10 -23 10t-23 -11l-172 -207v354q3 16 18 16h486q7 0 12 -5t5 -12l1 -353z" />
    <glyph glyph-name="uniE631" unicode="&#xe631;" 
d="M812 664h-400q-38 0 -79.5 -21.5t-63.5 -51.5l-104 -147q-47 -65 -48 -67q-4 -5 -4 -13t4 -13q0 -1 6.5 -9.5t18.5 -25.5t22 -32l105 -147q22 -30 63.5 -51.5t79.5 -21.5h400q41 0 70.5 29.5t29.5 70.5v400q0 41 -29.5 70.5t-70.5 29.5zM720 272q12 -11 12 -28
t-11.5 -28.5t-28.5 -11.5t-28 12l-92 91l-92 -91q-11 -12 -28 -12t-28.5 11.5t-11.5 28.5t12 28l91 92l-91 92q-12 11 -12 28t11.5 28.5t28.5 11.5t28 -12l92 -91l92 91q11 12 28 12t28.5 -11.5t11.5 -28.5t-12 -28l-91 -92z" />
    <glyph glyph-name="uniE632" unicode="&#xe632;" 
d="M229 559q54 74 77 92q14 11 21.5 15t19 2.5t27.5 -12.5q46 -33 74 -76q31 -49 -5 -73q-4 -2 -13.5 -8t-15 -9.5t-13.5 -10t-12.5 -12.5t-8 -13.5t-2.5 -16.5t5 -19q10 -21 31.5 -48t38.5 -44l17 -16q49 -48 82 -58q37 -12 60 27q1 2 4.5 8t5.5 9.5t6.5 10.5t7.5 10l8 9
q6 5 10.5 5.5t11 2.5t12.5 -1q46 -16 89 -65q12 -14 17.5 -22t10.5 -20.5t1 -24.5t-17 -25q-15 -17 -37.5 -36t-37.5 -30l-15 -10q-25 -5 -64 8q-176 57 -279 181q-24 29 -65 103t-49 126q0 1 -2 9.5t-3 17.5t2 14z" />
    <glyph glyph-name="uniE633" unicode="&#xe633;" 
d="M805 481q-27 45 -69 70.5t-86 30t-90 -1.5t-81.5 -19.5t-58.5 -28.5q-112 -76 -64 -172q17 -35 41 -51t50 -18t53 -3.5t59 -16.5t59 -48q9 -11 18 -35t16 -46t22 -43t34 -31.5t53 -4.5t79 32q41 23 48.5 85.5t-15 141.5t-68.5 159zM189.5 620q-34.5 -14 -49 -48
t-0.5 -68.5t48.5 -49t69 -0.5t49 48t0.5 68.5t-48.5 49t-69 0.5zM437.5 623.5q19.5 7.5 27.5 27t0 39t-27 27.5t-38.5 0t-28 -27t-0.5 -38.5t27.5 -27.5t39 -0.5zM611.5 646q17.5 7 24.5 24.5t0 34.5t-24 24.5t-34 0.5t-24.5 -24t-0.5 -34.5t24 -25t34.5 -0.5zM754 606
q17 7 24.5 24t0.5 34.5t-24.5 24.5t-34.5 0t-24.5 -24t-0.5 -34t24.5 -24.5t34.5 -0.5z" />
    <glyph glyph-name="uniE634" unicode="&#xe634;" 
d="M744 83h-464q-28 0 -48.5 20.5t-20.5 48.5v464q0 28 20.5 48.5t48.5 20.5h464q28 0 48.5 -20.5t20.5 -48.5v-464q0 -28 -20.5 -48.5t-48.5 -20.5zM280 639q-9 0 -16 -7t-7 -16v-464q0 -9 7 -16t16 -7h464q9 0 16 7t7 16v464q0 9 -7 16t-16 7h-464z" />
    <glyph glyph-name="uniE635" unicode="&#xe635;" 
d="M804 552l-119 6l-7 77q-2 13 -11.5 20.5t-22.5 6.5l-428 -35q-13 -1 -21 -10.5t-7 -21.5l30 -341q1 -12 11 -20t22 -7l22 2l-3 -66q-1 -14 8.5 -24t23.5 -10l478 -23q15 -1 25.5 8t10.5 23l20 381q1 14 -8.5 23.5t-23.5 10.5zM290 544l-10 -195l-26 -36l-23 258v1
q1 13 14 14l378 31q13 1 15 -12h1v-1l4 -44l-317 15q-15 0 -25.5 -8.5t-10.5 -22.5zM774 201l-68 80l-40 47q-6 8 -15 8q-7 1 -16 -6l-24 -17q-8 -5 -14 -5q-8 1 -13 6q-1 0 -3 2l-3 3l-62 71q-7 9 -19 9q-13 1 -22 -8l-156 -168v10l10 186l5 92v1q3 14 17 13l422 -20
q6 -1 10.5 -5t4.5 -10v-1h1zM682 375q21 0 36 15t15 36t-15 36t-36 15t-36 -15t-15 -36t15 -36t36 -15z" />
    <glyph glyph-name="uniE636" unicode="&#xe636;" 
d="M511 832q-91 0 -174 -35.5t-142.5 -95.5t-95 -143t-35.5 -174t35.5 -173.5t95 -142.5t142.5 -95.5t174 -35.5t174 35.5t143 95.5t95.5 142.5t35.5 173.5t-35.5 174t-95.5 143t-143 95.5t-174 35.5zM509 105q-23 1 -40 18t-18 40q0 26 18 44.5t44 17.5q24 -1 40.5 -17.5
t17.5 -40.5q1 -26 -17.5 -44t-44.5 -18zM572 331q0 -23 -15 -39.5t-36 -16.5h-18q-21 0 -35.5 16.5t-14.5 39.5l-22 277q0 23 15 39t36 16h59q21 0 35.5 -16t14.5 -39z" />
    <glyph glyph-name="uniE638" unicode="&#xe638;" 
d="M722 526l-188 188h-33v-251l-152 152l-46 -47l184 -184l-184 -185l46 -46l152 152v-251h33l188 188l-142 142zM567 588l62 -62l-62 -63v125zM629 242l-62 -63v126z" />
    <glyph glyph-name="uniE63A" unicode="&#xe63a;" 
d="M765 683h-506q-12 0 -20 -8.5t-8 -20t8 -19.5t20 -8h506q12 0 20 8t8 19.5t-8 20t-20 8.5zM532 555q-4 4 -9 6q-11 5 -22 0q-5 -2 -9 -6l-225 -225q-8 -8 -8 -20t8 -20t20 -8t20 8l177 177v-382q0 -11 8 -19.5t20 -8.5t20 8.5t8 19.5v382l177 -177q8 -8 20 -8t20 8.5
t8 20t-8 19.5z" />
    <glyph glyph-name="uniE63B" unicode="&#xe63b;" 
d="M686 674q48 0 82 -34t34 -82t-34 -82t-82 -34q-26 0 -48.5 10.5t-39.5 29.5l-146 -74q2 -12 2 -24t-2 -24l146 -74q17 19 39.5 29.5t48.5 10.5q48 0 82 -34t34 -82t-34 -82t-82 -34t-82 34t-34 82q0 12 2 24l-146 74q-17 -19 -39.5 -29.5t-48.5 -10.5q-48 0 -82 34
t-34 82t34 82t82 34q26 0 48.5 -10.5t39.5 -29.5l146 74q-2 12 -2 24q0 48 34 82t82 34zM338 442q-24 0 -41 -17t-17 -41t17 -41t41 -17t41 17t17 41t-17 41t-41 17zM686 268q-24 0 -41 -17t-17 -41t17 -41t41 -17t41 17t17 41t-17 41t-41 17zM686 616q-24 0 -41 -17
t-17 -41t17 -41t41 -17t41 17t17 41t-17 41t-41 17z" />
    <glyph glyph-name="uniE63C" unicode="&#xe63c;" 
d="M141 708v-463h742v463h-742zM836 291h-648v371h648v-371zM628 199h-232l-23 -93l-46 -46h370l-46 46z" />
    <glyph glyph-name="uniE63D" unicode="&#xe63d;" 
d="M686 732h-391q-18 0 -31 -13t-13 -31v-608q0 -18 13 -31t31 -13h391q18 0 30.5 13t12.5 31v608q0 18 -12.5 31t-30.5 13zM490 68q-14 0 -24 10t-10 24t10 23.5t24 9.5t24 -9.5t10 -23.5t-10 -24t-24 -10zM686 167h-391v478h391v-478z" />
    <glyph glyph-name="uniE63E" unicode="&#xe63e;" 
d="M512 703v65h128v64q0 27 -18.5 45.5t-45.5 18.5h-192q-27 0 -45.5 -18.5t-18.5 -45.5v-64h128v-65q-106 -8 -194 -65t-139 -149.5t-51 -200.5q0 -113 55.5 -209t151.5 -151.5t209 -55.5t209 55.5t151.5 151.5t55.5 209q0 108 -51 200.5t-139 149.5t-194 65zM706.5 61.5
q-93.5 -93.5 -226.5 -93.5t-226.5 93.5t-93.5 226.5t94 226q89 90 216 94l-22 -314q-1 -19 8 -28.5t24 -9.5t24 9.5t8 28.5l-22 314q127 -4 216 -94q94 -93 94 -226t-93.5 -226.5z" />
    <glyph glyph-name="uniE63F" unicode="&#xe63f;" horiz-adv-x="1025" 
d="M883 106h-742v556h47v-510h695v-46zM373 199h-93v185h93v-185zM512 199h-93v370h93v-370zM651 199h-92v278h92v-278zM790 199h-92v417h92v-417z" />
    <glyph glyph-name="uniE640" unicode="&#xe640;" horiz-adv-x="1331" 
d="M1019 542q-8 54 -30 78q-6 6 -12 11.5t-12.5 8.5t-11.5 5.5t-12 4t-10 2t-9 0.5l-7 1q-47 4 -112 6t-107 2h-42q-157 0 -261 -8l-7 -1q-6 0 -9 -0.5t-10 -2t-12 -4t-11.5 -5.5t-12.5 -8.5t-12 -11.5q-10 -11 -17.5 -30.5t-9.5 -33.5l-3 -14q-7 -64 -7 -128v-60
q0 -28 2 -60t3 -50l2 -17q8 -55 30 -79q10 -10 23 -17.5t21.5 -9.5t22.5 -4t15 -2q78 -8 253 -8q157 0 261 8l7 1q6 0 9 1t10 2t12 3.5t11.5 6t12.5 8.5t12 11q10 11 17.5 30.5t9.5 33.5l3 15q7 64 7 127v60q0 64 -7 128zM561 245v278l233 -139z" />
    <glyph glyph-name="uniE641" unicode="&#xe641;" 
d="M864 142q-4 8 -28 5q-45 -6 -65 29q-15 26 -7.5 52.5t43.5 75.5l15 21q67 93 27 161q-12 22 -40.5 30.5t-59 4.5t-60.5 -16q-34 71 -101 114t-149 43q-115 0 -196.5 -81.5t-81.5 -196.5t81.5 -196.5t196.5 -81.5t196.5 81.5t81.5 196.5q0 49 -17 97q31 11 62 12
q50 2 63 -22q34 -58 -32 -137l-9 -11q-77 -92 -37 -162q16 -28 51.5 -40t60.5 2q12 8 5 19zM312 325q-24 0 -41 17t-17 41t17 40.5t41 16.5t41 -16.5t17 -40.5t-17 -41t-41 -17zM439 197q-24 0 -41 17t-17 41t17 41t41 17t41 -17t17 -41t-17 -41t-41 -17zM417 382.5
q0 9.5 6.5 16.5t16 7t16.5 -7t7 -16.5t-7 -16.5t-16.5 -7t-16 7t-6.5 16.5zM439 452q-24 0 -41 17t-17 41t17 41t41 17t41 -17t17 -41t-17 -41t-41 -17zM567 325q-24 0 -41 17t-17 41t17 40.5t41 16.5t41 -16.5t17 -40.5t-17 -41t-41 -17z" />
    <glyph glyph-name="uniE642" unicode="&#xe642;" 
d="M778 429h-532q-17 0 -31 -14t-14 -31q0 -18 12.5 -31.5t32.5 -13.5h532q17 0 31 14t14 31q0 18 -12.5 31.5t-32.5 13.5z" />
    <glyph glyph-name="uniE643" unicode="&#xe643;" 
d="M756 547h-122v81q0 17 -12 29t-29 12h-162q-17 0 -29 -12t-12 -29v-81h-122q-34 0 -58 -24t-24 -58v-325q0 -34 24 -58t58 -24h488q34 0 58 24t24 58v325q0 34 -24 58t-58 24zM431 628h162v-81h-162v81zM675 262h-122v-122h-82v122h-122v81h122v122h82v-122h122v-81z" />
    <glyph glyph-name="uniE644" unicode="&#xe644;" 
d="M805 417h-260v260q0 14 -10 23.5t-23.5 9.5t-23 -9.5t-9.5 -23.5v-260h-260q-14 0 -23.5 -10t-9.5 -23t9.5 -23t23.5 -10h260v-260q0 -14 9.5 -23.5t23 -9.5t23.5 9.5t10 23.5v260h260q14 0 23.5 10t9.5 23t-9.5 23t-23.5 10z" />
    <glyph glyph-name="uniE645" unicode="&#xe645;" 
d="M259 372q11 -11 29.5 -29t64 -70t77.5 -99q41 69 95 133t101 107t88 76t65 48l24 15l5 26q0 26 -26 13q-6 -3 -18 -8.5t-51 -27t-79 -47.5t-100 -71t-117 -97q-31 30 -59 51.5t-40 27.5l-12 6q-22 11 -34 -2.5t-12 -32.5z" />
    <glyph glyph-name="uniE646" unicode="&#xe646;" 
d="M186 628h82v-407h-82v407zM308 628h41v-407h-41v407zM390 628h41v-407h-41v407zM512 628h41v-407h-41v407zM675 628h41v-407h-41v407zM797 628h41v-407h-41v407zM593 628h21v-407h-21v407zM471 628h21v-407h-21v407zM736 628h20v-407h-20v407zM186 180h41v-40h-41v40z
M308 180h41v-40h-41v40zM390 180h41v-40h-41v40zM593 180h41v-40h-41v40zM797 180h41v-40h-41v40zM675 180h81v-40h-81v40zM471 180h82v-40h-82v40z" />
    <glyph glyph-name="uniE647" unicode="&#xe647;" 
d="M213 38zM213 38zM267 197h106v-106h-106v106zM267 197zM532 303h53v-212h-53v212zM532 303zM160 -16h319v319h-319v-319zM213 38v212h213v-212h-213zM213 38zM532 38h106v-54h-106v54zM532 38zM798 197h53v-53h-53v53zM798 197zM692 303h159v-53h-159v53zM692 303z
M638 569h107v-106h-107v106zM638 569zM851 675h-319v-319h319v319zM798 409h-213v213h213v-213zM798 409zM160 356h319v319h-319v-319zM213 622h213v-213h-213v213zM213 622zM798 38h-106v-54h159v107h-53v-53zM798 38zM638 197v-106h107v53h-53v53h-54zM638 197zM267 569
h106v-106h-106v106zM267 569z" />
    <glyph glyph-name="uniE648" unicode="&#xe648;" 
d="M724 663h-426q-28 0 -48 -20t-20 -47v-423q0 -28 20 -48t48 -20h426q28 0 47.5 20t19.5 48v423q0 27 -19.5 47t-47.5 20zM674 505l-187 -269q-6 -9 -17 -11h-3q-10 0 -17 7l-99 91q-8 7 -8 17.5t6.5 17.5t17 7.5t17.5 -6.5l79 -72l171 246q6 8 16 9.5t18 -4t10 -15.5
t-4 -18z" />
    <glyph glyph-name="uniE649" unicode="&#xe649;" horiz-adv-x="1098" 
d="M349 514q0 19 -13.5 33t-33 14t-33 -14t-13.5 -33t13.5 -33t33 -14t33 14t13.5 33zM737 304q0 -19 -13 -32l-179 -179q-14 -14 -33 -14t-33 14l-260 260q-14 14 -23.5 37t-9.5 43v151q0 19 14 32.5t33 13.5h151q19 0 42.5 -9.5t37.5 -23.5l260 -259q13 -15 13 -34z
M877 304q0 -19 -14 -32l-178 -179q-14 -14 -33 -14q-13 0 -21.5 5t-19.5 17l171 171q13 13 13 32t-13 34l-260 259q-14 14 -37.5 23.5t-42.5 9.5h82q19 0 42 -9.5t37 -23.5l260 -259q14 -15 14 -34z" />
    <glyph glyph-name="uniE64A" unicode="&#xe64a;" horiz-adv-x="1104" 
d="M123 773zM305 213q-29 0 -49.5 20.5t-20.5 49.5v308q0 29 20.5 49.5t49.5 20.5h476q29 0 49.5 -20.5t20.5 -49.5v-308q0 -29 -20.5 -49.5t-49.5 -20.5h-476zM291 591v-308q0 -6 4 -10t10 -4h476q6 0 10 4t4 10v308q0 6 -4 10t-10 4h-476q-6 0 -10 -4t-4 -10zM893 185h71
v-42q0 -18 -21 -30t-50 -12h-700q-29 0 -49.5 12t-20.5 30v42h770zM578 143q7 0 7 7t-7 7h-70q-7 0 -7 -7t7 -7h70z" />
    <glyph glyph-name="uniE64B" unicode="&#xe64b;" 
d="M396 530.5q0 19.5 -14 33t-33 13.5t-32.5 -13.5t-13.5 -33t13.5 -33t32.5 -13.5t33 13.5t14 33zM784 321q0 -19 -14 -33l-178 -179q-15 -13 -33 -13q-20 0 -33 13l-260 261q-14 13 -23.5 36.5t-9.5 42.5v151q0 19 13.5 33t32.5 14h152q19 0 42 -9.5t37 -23.5l260 -260
q14 -14 14 -33z" />
    <glyph glyph-name="uniE64C" unicode="&#xe64c;" 
d="M851 723h-678q-25 0 -41 -15.5t-16 -40.5v-453q0 -25 16 -40.5t41 -15.5h158v-57h-130q-12 0 -20 -7.5t-8 -20t8 -20.5t20 -8h622q12 0 20 8t8 20.5t-8 20t-20 7.5h-130v57h158q25 0 41 15.5t16 40.5v453q0 25 -16 40.5t-41 15.5zM636 101h-248v57h254v-57h-6zM851 243
q0 -13 -8 -21t-20 -8h-622q-12 0 -20 8t-8 21v395q0 13 8 21t20 8h622q12 0 20 -8t8 -21v-395z" />
    <glyph glyph-name="uniE64D" unicode="&#xe64d;" 
d="M512 316l-334 198v-311q0 -24 18.5 -40.5t44.5 -16.5h542q26 0 44.5 16.5t18.5 40.5v311zM241 622q-24 0 -42 -14.5t-20 -36.5q-1 -3 -1 -6l334 -198l334 198q0 4 -1 6q-2 22 -20 36.5t-42 14.5h-542zM241 622z" />
    <glyph glyph-name="uniE64E" unicode="&#xe64e;" 
d="M756 628v-529h-427q-26 0 -43.5 18t-17.5 43t17.5 43t43.5 18h387v489h-408q-33 0 -57 -24t-24 -58v-488q0 -34 24 -58t57 -24h489v570h-41zM349 180h367v-40h-367v40z" />
    <glyph glyph-name="uniE64F" unicode="&#xe64f;" 
d="M878 79h-732l-4 1q-24 5 -26 5q-23 8 -37.5 27.5t-15.5 43.5v52v212q0 196 -1 212q0 49 43 74q19 10 46 10h721h2h2q35 0 60.5 -24.5t25.5 -62.5q-1 -47 -1 -465q0 -11 -1 -15q-4 -25 -20.5 -43t-41.5 -24q-1 0 -20 -3zM905 397h-787v-6v-52v-176q0 -21 17 -28
q7 -3 17 -3h593h129q14 0 23 8.5t8 23.5v227v6zM905 557v83q0 8 -9 16q-8 7 -24 7h-720h-2h-1q-13 0 -22 -8.5t-9 -22.5v-69q0 -5 1 -5.5t6 -0.5h774h6zM232 193h-59v112h59v-112zM293 305h59v-112h-59v112zM471 193h-59v112h59v-112z" />
    <glyph glyph-name="uniE650" unicode="&#xe650;" 
d="M719 386q2 19 -11 32l-333 333q-11 11 -27.5 11t-28.5 -11.5t-12 -28t12 -28.5l306 -306l-306 -305q-11 -12 -11 -28.5t11.5 -28t28 -11.5t27.5 11l333 333q11 11 11 27z" />
    <glyph glyph-name="uniE651" unicode="&#xe651;" 
d="M512 834q-186 0 -318 -132t-132 -318t132 -318t318 -132t318 132t132 318t-132 318t-318 132zM703 244q10 -10 10 -25t-10 -26q-11 -10 -26 -10t-25 10l-140 140l-140 -140q-10 -10 -25 -10t-26 10q-10 11 -10 26t10 25l140 140l-140 140q-10 10 -10 25t10 26
q11 10 26 10t25 -10l140 -140l140 140q10 10 25 10t26 -10q10 -11 10 -26t-10 -25l-140 -140z" />
    <glyph glyph-name="uniE652" unicode="&#xe652;" 
d="M512 834q-122 0 -225.5 -60.5t-164 -164t-60.5 -225.5t60.5 -225.5t164 -164t225.5 -60.5t225.5 60.5t164 164t60.5 225.5t-60.5 225.5t-164 164t-225.5 60.5zM771 502l-293 -292q-9 -9 -23 -11.5t-27 5.5l-6 6l-169 168q-12 13 -12 28.5t12.5 28t28 12.5t28.5 -12
l140 -141l264 264q13 13 28.5 13t28 -12.5t12.5 -28t-12 -28.5z" />
    <glyph glyph-name="uniE653" unicode="&#xe653;" 
d="M765 476q5 3 5 7t-5 6v-13zM442 649q-12 7 -25 0h25zM237 394v-182l254 -139l254 139v182l-254 -139zM491 728l-400 -218l400 -219l327 179v-251h73v291zM852 489l-335 35q-2 -9 -9.5 -15t-16.5 -6q-11 0 -18.5 7.5t-7.5 18t7.5 18.5t18.5 8q18 0 24 -17l352 -36z" />
    <glyph glyph-name="uniE654" unicode="&#xe654;" 
d="M722 594q-40 43 -94.5 66.5t-115.5 23.5q-124 0 -212 -88t-88 -212t88 -212t212 -88q103 0 183 63.5t106 161.5h-79q-23 -66 -80.5 -108t-129.5 -42q-93 0 -159 66t-66 159t66 159t159 66q90 0 158 -68l-120 -120h262v263z" />
    <glyph glyph-name="uniE655" unicode="&#xe655;" 
d="M737 590q-42 47 -100.5 73.5t-124.5 26.5q-127 0 -216.5 -89.5t-89.5 -216.5h58q0 103 72.5 175.5t175.5 72.5q54 0 102 -22t83 -60l-90 -90h210v210zM760 384q0 -103 -72.5 -175.5t-175.5 -72.5q-54 0 -102 22t-83 60l90 90h-211v-210l81 80q42 -47 100.5 -73.5
t124.5 -26.5q127 0 216.5 89.5t89.5 216.5h-58z" />
    <glyph glyph-name="uniE656" unicode="&#xe656;" horiz-adv-x="1098" 
d="M411 215l-19 -19q-3 -3 -8 -3t-8 3l-170 170q-3 4 -3 8.5t3 8.5l170 169q3 4 8 4t8 -4l19 -18q3 -4 3 -8.5t-3 -8.5l-143 -143l143 -143q3 -3 3 -8t-3 -8zM625 603l-135 -470q-2 -5 -6 -7t-8 -1l-23 6q-5 2 -7 6t-1 9l136 469q1 5 5.5 7.5t8.5 0.5l22 -6q5 -1 7.5 -5.5
t0.5 -8.5zM864 366l-169 -170q-4 -3 -8.5 -3t-8.5 3l-18 19q-4 3 -4 8t4 8l143 143l-143 143q-4 4 -4 8.5t4 8.5l18 18q4 4 8.5 4t8.5 -4l169 -169q4 -4 4 -8.5t-4 -8.5z" />
    <glyph glyph-name="uniE657" unicode="&#xe657;" 
d="M797 670l-232 -572l-80 259l-258 79z" />
    <glyph glyph-name="uniE658" unicode="&#xe658;" 
d="M265 432l218 218q55 55 131.5 55t131 -54.5t54.5 -131.5t-54 -131l-284 -284q-41 -41 -98.5 -41t-98.5 41t-41 98.5t41 98.5l218 218q27 27 65.5 27t66 -27t27.5 -65.5t-28 -65.5l-174 -175l-44 44l175 175q9 9 9 21.5t-9 22t-22 9.5t-22 -9l-218 -219q-23 -23 -23 -55
t22.5 -54.5t54.5 -22.5t55 23l284 284q36 36 36 87t-36 87.5t-87.5 36.5t-87.5 -36l-218 -219z" />
    <glyph glyph-name="uniE659" unicode="&#xe659;" 
d="M789 589h-461l-8 66q-1 8 -7.5 13.5t-14.5 5.5h-4q-3 0 -6 -1h-56q-10 0 -17 -6t-7 -15t7 -15.5t17 -6.5h47l45 -372q1 -8 7.5 -13.5t14.5 -5.5h5h5h373q9 0 16 6.5t7 15.5t-7 15.5t-16 6.5h-364l-5 45h370q8 0 15 6t9 13l50 223q2 7 -2.5 13t-12.5 6zM364 144
q0 -22 15.5 -37.5t37.5 -15.5t37.5 15.5t15.5 37.5t-15.5 37t-37.5 15t-37.5 -15t-15.5 -37zM625 144q0 -22 15.5 -37.5t37.5 -15.5t37.5 15.5t15.5 37.5t-15.5 37t-37.5 15t-37.5 -15t-15.5 -37z" />
    <glyph glyph-name="uniE65A" unicode="&#xe65a;" 
d="M186 588l204 81v-489l-204 -81v489zM431 690l203 -123v-468l-203 102v489zM675 567l163 123v-489l-163 -123v489z" />
    <glyph glyph-name="uniE65B" unicode="&#xe65b;" 
d="M512 662q-72 0 -122.5 -51t-50.5 -123q0 -46 19 -103.5t41.5 -102t52.5 -90.5t41.5 -61.5t18.5 -24.5q7 9 18.5 24.5t41.5 61.5t52.5 90.5t41.5 102t19 103.5q0 72 -50.5 123t-122.5 51zM512 404q-34 0 -58 24t-24 58t24 58t58 24t58 -24t24 -58t-24 -58t-58 -24z" />
    <glyph glyph-name="uniE65C" unicode="&#xe65c;" 
d="M512 587q-40 0 -81.5 -10.5t-74.5 -26.5t-64 -35.5t-53.5 -39t-39.5 -36t-26 -26.5l-9 -10v-36q0 -2 17 -20t49.5 -46t73 -55t96.5 -46t112 -19t112 19t96.5 46t73.5 54t49 46l17 19v36q0 2 -17 20t-49.5 46t-73 55t-96.5 46t-112 19zM511 259q-50 0 -86 36t-36 86t36 86
t86 36t85.5 -36t35.5 -86t-35.5 -86t-85.5 -36zM511 438q-23 0 -39 -16.5t-16 -39t16 -38.5t38.5 -16t39 16t16.5 39t-16 39t-39 16z" />
    <glyph glyph-name="uniE65D" unicode="&#xe65d;" 
d="M512 199l217 -131l-57 247l192 166l-253 21l-99 234l-99 -234l-253 -21l192 -166l-57 -247z" />
    <glyph glyph-name="uniE65E" unicode="&#xe65e;" 
d="M419 566q7 0 12 5t5 12.5t-5 12.5t-12 5t-12 -5t-5 -12.5t5 -12.5t12 -5zM605 566q7 0 12 5t5 12.5t-5 12.5t-12 5t-12 -5t-5 -12.5t5 -12.5t12 -5zM247 485q18 0 31.5 -13t13.5 -32v-190q0 -19 -13 -32t-32 -13t-32.5 13t-13.5 32v190q0 19 13.5 32t32.5 13zM715 477
v-294q0 -21 -14.5 -35t-34.5 -14h-33v-100q0 -19 -13 -32t-32 -13t-32 13t-13 32v100h-61v-100q0 -19 -13.5 -32t-32.5 -13q-18 0 -31.5 13t-13.5 32v100h-33q-20 0 -34 14t-14 35v294h405zM612 655q47 -24 75.5 -67.5t28.5 -94.5h-408q0 51 28 94.5t76 67.5l-32 58
q-3 6 3 9q5 3 8 -3l32 -58q42 19 89 19t89 -19l31 58q4 6 9 3q6 -3 2 -9zM823 440v-190q0 -19 -13.5 -32t-32.5 -13q-18 0 -31.5 13t-13.5 32v190q0 19 13.5 32t31.5 13q19 0 32.5 -13t13.5 -32z" />
    <glyph glyph-name="uniE65F" unicode="&#xe65f;" 
d="M406 420h212v80q0 44 -31 75t-75 31t-75 -31t-31 -75v-80zM750 381v-239q0 -16 -11.5 -27.5t-27.5 -11.5h-398q-16 0 -27.5 11.5t-11.5 27.5v239q0 16 11.5 27.5t27.5 11.5h14v80q0 76 54.5 130.5t130.5 54.5t130.5 -54.5t54.5 -130.5v-80h14q16 0 27.5 -11.5t11.5 -27.5
z" />
    <glyph glyph-name="uniE660" unicode="&#xe660;" 
d="M512 112q-13 0 -22 8q-75 40 -145 100q-147 126 -147 253q0 84 46.5 129.5t133.5 45.5q23 0 44 -8t31.5 -15t25.5 -20q24 -19 33 -19t31 18q15 13 25 20.5t32 15.5t46 8q88 0 134 -45t46 -130q0 -40 -15.5 -80.5t-38 -72.5t-54.5 -64t-59.5 -53.5t-57.5 -41.5
t-43.5 -27.5t-23.5 -13.5q-9 -8 -22 -8z" />
    <glyph glyph-name="uniE661" unicode="&#xe661;" 
d="M912 300l-37 -51q-3 -7 -10.5 -12t-15.5 -5l-739 -1v27l150 53l-10 47l-140 -74v27l380 227l14 9q20 17 60.5 31t92.5 15q36 0 73.5 -12.5t59.5 -30.5q10 -7 16 -19l102 -197q11 -16 4 -34zM532 420l-27 60q-5 10 -15 4l-214 -113l11 -50l240 85q8 6 5 14zM814 414
l-50 99q-7 11 -16 16q-4 3 -12 7t-31.5 10.5t-45.5 6.5q-29 -1 -53 -6t-34 -9l-9 -5q-15 -6 -9 -21l48 -104q4 -8 14 -8h188q8 0 10.5 5.5t-0.5 8.5zM837 320h-183q-6 0 -9.5 -3.5t-3.5 -8.5t3.5 -8.5t9.5 -3.5h183q5 0 9 3.5t4 8.5t-4 8.5t-9 3.5zM126 207h756q6 0 11 -4.5
t5 -11.5t-5 -11.5t-11 -4.5h-756q-6 0 -11 4.5t-5 11.5t5 11.5t11 4.5z" />
    <glyph glyph-name="uniE662" unicode="&#xe662;" 
d="M623 379l-181 -74q35 -28 70 -28q44 0 76 30t35 72zM359 384q0 59 45.5 103.5t107.5 44.5q65 0 111 -46l93 42q-130 65 -204 65q-62 0 -146 -38.5t-143 -88.5t-59 -82q0 -30 51 -74l144 60q2 2 2 4.5t-1 5t-1 4.5zM405 389l177 74q-28 28 -70 28q-41 0 -72 -30t-35 -72z
M809 458l-144 -60v-14q0 -59 -45.5 -103.5t-107.5 -44.5q-65 0 -111 46l-93 -42q130 -65 204 -65q63 0 147.5 40t142.5 89.5t58 79.5t-51 74zM152 247l709 299l11 -26l-709 -299z" />
    <glyph glyph-name="uniE663" unicode="&#xe663;" 
d="M855 99h-686q-30 0 -52 21.5t-22 52.5v108q0 15 16 19q28 8 45.5 31t17.5 50q0 29 -18 52.5t-45 29.5q-6 2 -11 7.5t-5 11.5v113q0 30 21.5 52t52.5 22h686q30 0 52 -21.5t22 -52.5v-108q0 -15 -16 -19q-28 -8 -45.5 -31t-17.5 -50q0 -29 18 -52.5t45 -29.5q6 -2 11 -7.5
t5 -11.5v-113q0 -30 -22.5 -52t-51.5 -22zM138 268v-95q0 -13 9.5 -22.5t21.5 -9.5h686q13 0 22 10t9 22v95q-35 14 -57 45.5t-22 70.5t22 70.5t57 45.5v95q0 13 -9.5 22.5t-21.5 9.5h-686q-14 0 -22.5 -9t-8.5 -23v-95q35 -14 57 -45.5t22 -70.5t-22.5 -70.5t-56.5 -45.5z
M354 574q-8 0 -14.5 6.5t-6.5 14.5v53q0 8 5.5 14.5t15.5 6.5q21 0 21 -21v-53q0 -8 -6.5 -14.5t-14.5 -6.5zM354 416q-9 0 -15 5.5t-6 15.5v52q0 9 5.5 15.5t15.5 6.5q21 0 21 -22v-52q0 -8 -6.5 -14.5t-14.5 -6.5zM354 257q-9 0 -15 6t-6 16v52q0 9 5.5 15t15.5 6
q21 0 21 -21v-52q0 -8 -6.5 -15t-14.5 -7zM354 99q-9 0 -15 6t-6 15v53q0 8 5.5 14.5t15.5 6.5q21 0 21 -21v-53q0 -8 -6.5 -14.5t-14.5 -6.5z" />
    <glyph glyph-name="uniE664" unicode="&#xe664;" 
d="M697 404q-47 132 -185 249q-138 -117 -185 -249q-36 -100 7 -181q26 -49 74 -78.5t104 -29.5t104 29.5t74 78.5q43 81 7 181zM631 254q-17 -32 -49.5 -51.5t-69.5 -19.5q-44 0 -80 26q11 -1 21 -1q46 0 86.5 24.5t62.5 65.5q30 56 12 128q12 -23 20 -44q26 -73 -3 -128z
" />
    <glyph glyph-name="uniE665" unicode="&#xe665;" 
d="M857 496q-27 129 -132 198t-252 53q-147 -17 -236.5 -116t-72.5 -228q20 -150 201 -243q51 -26 43 -84q-1 -11 -5.5 -26t-6.5 -20t1 -11q4 -4 35.5 17.5t52.5 41.5q9 8 17.5 14t14 10t17 10t16 8t22 10t24.5 11q48 22 73.5 34.5t62 37.5t60.5 52q91 106 65 231zM338 399
q-22 0 -37.5 15.5t-15.5 37.5t15.5 37.5t37.5 15.5t37.5 -15.5t15.5 -37.5t-15.5 -37.5t-37.5 -15.5zM513.5 399q-21.5 0 -37 15.5t-15.5 37.5t15.5 37.5t37 15.5t37 -15.5t15.5 -37.5t-15.5 -37.5t-37 -15.5zM695 399q-22 0 -37.5 15.5t-15.5 37.5t15.5 37.5t37.5 15.5
t37 -15.5t15 -37.5t-15 -37.5t-37 -15.5z" />
    <glyph glyph-name="uniE667" unicode="&#xe667;" 
d="M779 690h39v-440q0 -39 -39.5 -67t-95 -28t-94.5 28t-39 67.5t39 67.5t95 28t95 -29v220l-305 -68v-295q0 -40 -39 -68t-94.5 -28t-95 28t-39.5 67.5t39.5 67.5t94.5 28q56 0 96 -28v372z" />
    <glyph glyph-name="uniE668" unicode="&#xe668;" 
d="M770 108q28 5 47 25t19 47v444q0 42 -36 60q-36 31 -107.5 48.5t-162.5 17.5h-36q-127 0 -213.5 -36t-86.5 -90v-6v-438q0 -27 19 -47t47 -25l-102 -84h102l96 84h312l96 -84h102zM386 690h258q14 0 22 -8t8 -22t-8 -22t-22 -8h-258q-14 0 -22 8t-8 22q-4 13 5.5 21.5
t24.5 8.5zM386 186q-28 0 -47 17t-19 43t19 43t47 17t47 -17t19 -43q-5 -23 -24.5 -41.5t-41.5 -18.5zM638 186q-28 0 -47 17t-19 43t19 43t47 17t47 -17t19 -43q0 -23 -20 -41.5t-46 -18.5zM710 384h-390q-28 0 -47 17t-19 43v66q0 26 19 43t47 17h384q26 0 46 -18.5
t20 -41.5v-66q4 -26 -14 -43t-46 -17z" />
    <glyph glyph-name="uniE669" unicode="&#xe669;" 
d="M807 211v-37q0 -18 -3.5 -31.5t-14 -21.5t-30.5 -8v-49q0 -20 -15 -35t-35.5 -15t-34.5 15t-14 35v49h-296v-49q0 -20 -14 -35t-34.5 -15t-35.5 15t-15 35v49q-19 0 -29.5 8t-14.5 21.5t-4 31.5v37v444q0 21 7.5 38.5t21 31t31.5 21.5t38 8h394q20 0 38 -8t31.5 -21.5
t21 -31t7.5 -38.5v-444zM412 705q-10 0 -17 -7.5t-7 -17.5q0 -11 7 -18t17 -7h200q10 0 17 7t7 18q0 10 -7 17.5t-17 7.5h-200zM338 204q15 0 25.5 10.5t10.5 25.5t-10.5 25.5t-25.5 10.5q-16 0 -26 -10.5t-10 -25.5t10 -25.5t26 -10.5zM683 205q14 0 24 10.5t10 24.5
t-10 24t-24 10q-15 0 -25 -10t-10 -24t10 -24.5t25 -10.5zM759 606h-494v-197h494v197z" />
    <glyph glyph-name="uniE66A" unicode="&#xe66a;" horiz-adv-x="1280" 
d="M826.5 314q-21.5 0 -37 16t-15.5 39t15.5 39t37 16t36.5 -16t15 -39t-15 -39t-36.5 -16zM342 477l45 130q4 13 27 25t39 12h283q15 0 37.5 -12t26.5 -25l46 -132zM360.5 314q-21.5 0 -36.5 16t-15 39t15 39t36.5 16t37 -16t15.5 -39t-15.5 -39t-37 -16zM907 480l-60 159
q-8 23 -41 40t-68 17h-289q-35 0 -68 -17t-41 -40l-60 -159q-23 -2 -45 -25.5t-22 -60.5l2 -213h80l1 -49q0 -23 10.5 -38.5t25.5 -19t30 0t25.5 19t10.5 38.5l2 50l384 -1v-52q0 -22 11 -36.5t27 -17.5t31.5 1t26.5 19t11 35l-1 51l81 1l3 212q0 37 -22 60.5t-45 25.5z" />
    <glyph glyph-name="uniE66B" unicode="&#xe66b;" 
d="M535 743h19v-2h8v-2h5v-2q4 0 7 -1v-2h4l4 -6h3v-1l6 -4v-4q1 -1 3 -1q15 -23 9 -44l-2 -14h-1v-4h-2q-1 -3 -2 -7q-3 -2 -5 -4v-3l-8 -6v-2h-3q-1 -1 -2 -3q-5 -2 -11 -4v-2h-3v-1h-8v-2q-9 -3 -23 2q-7 1 -13 1v2q-3 1 -7 2l-2 4h-3l-3 3q-2 2 -3.5 4t-3.5 3q-1 1 -3 2
v4l-4 2q0 1 -0.5 3.5t-1.5 3.5h-1q-1 5 -2 11h-2v27h2q1 5 2 11h1q1 0 1.5 2.5t0.5 4.5l4 2v3q5 5 11 9l2 4h3q0 1 2 4zM694 403q1 -4 1 -7h2q3 -8 -5 -27q-5 -3 -7 -6q-9 0 -16 1t-14.5 3.5t-11.5 3.5t-12.5 5.5t-10.5 4.5h-6v2h-5v2h-4v2h-5v2q-2 0 -6 1.5t-5 1.5v2h-4
l-2 4h-3q-1 1 -2 3h-4v2q-7 6 -10 7q-2 5 -5.5 7.5t-4.5 3.5v4h-1q-1 4 -2 7h-2v9q-1 0 -4 2q-5 5 -12 5v-1h-6q-1 -2 -3.5 -5t-3.5 -5h-2v-7h-1q-1 -5 -2 -15t-2 -15q-9 -29 -9 -75q3 -2 2.5 -2.5t1.5 -2.5q1 -1 4 -3.5t5 -3.5v-4l2 -1q2 -2 3 -2v-4q3 -2 5 -4v-3l6 -4v-3
q0 -1 1 -2h2v-4q1 0 2 -0.5t2 -1.5v-3q1 -1 2 -1.5t2 -0.5v-4l3 -2q1 -3 2 -7q1 0 4 -2v-3h1v-4l4 -3v-4l4 -2v-3h2v-4h1v-6h2v-3h2q2 -6 4 -11h1v-5h2v-4h2q1 -5 2 -11h2v-3h1q1 -8 2 -13h2v-6h2v-5h2v-7l3 -15l4 -14v-29q0 -4 0.5 -25.5t0 -34.5t-4.5 -21q-1 -1 -5 -4
t-6 -4h-7v-1q-10 -1 -14 -1t-14 3t-12 3q-4 5 -9 11q1 78 -9 110v9h-1q-1 2 -1.5 6.5t-0.5 6.5h-2v5q-4 3 -7 6v3q-11 9 -17 15v3q-2 3 -7.5 7.5t-8.5 7.5v3q-7 7 -14 13v4q-3 2 -7 5.5t-6 5.5q-1 -1 -9 -2q0 -1 -0.5 -2t-1.5 -2t-3.5 -3t-3.5 -2v-4q-1 0 -2 -0.5t-2 -1.5
q0 -2 -1.5 -5.5t-1.5 -5.5h-2q0 -1 -1 -3.5t-1 -3.5h-2v-3h-1v-4h-2v-4h-2v-3h-2v-4h-2v-3h-1q-1 -2 -2.5 -6t-1.5 -5q-1 -1 -4 -2q0 -1 -0.5 -3.5t-1.5 -3.5l-3 -4v-4h-2v-3h-2v-4h-2v-3h-1v-4h-2v-4l-4 -3v-4l-3 -2v-3h-2l-2 -8h-2q-1 -3 -2 -7h-1v-3h-2v-4h-2v-4h-2v-3
h-2v-4h-1q-1 -1 -1.5 -3.5t-0.5 -3.5q-1 0 -4 -2q-1 -2 -2 -5.5t-2 -5.5h-1q-1 -4 -2 -7h-2v-4h-2v-3h-2v-4h-1v-3h-2q0 -2 -1 -4t-1 -4q-1 0 -4 -1q0 -2 -1.5 -6t-1.5 -5q-1 -1 -4 -2q-1 -2 -3.5 -5t-3.5 -4q-5 -3 -16.5 -6t-17.5 -1v1h-6v2h-3q-1 1 -1.5 2t-0.5 2h-4v2
q-1 0 -2.5 1.5t-2.5 1.5v4q-1 0 -2 0.5t-2 1.5q-1 11 -2 21l3 9q2 6 3 8h2v3h1q1 2 2 5.5t2 5.5h2q1 4 2 9h1v4h2v5h2v4h2q0 1 0.5 3.5t1.5 3.5h1v5h2l2 8h2v5h2q0 1 0.5 3.5t0.5 3.5h2v6h2v3h2q0 2 0.5 4t1.5 4h1v5h2q1 4 2 7h2v6h2q1 4 2 7h1v5h2l2 8h2v3h2v6h1q1 3 2 7h2
v5h2q0 1 0.5 3.5t1.5 3.5h1v6h2q1 4 2 7h2v4h2v5h1q1 4 2 7h2v6h2q1 4 2 7h1v4h2v5h2q1 4 2 7h2v6h2q1 4 1 7h2v5h2v31v63q0 5 0.5 17t1.5 18h2v7h1v5h2v6h2v3h2v6h2q1 4 1 7h2v5h2l2 8h2q1 3 1 7q1 0 2 0.5t2 1.5v3h2v4l3 4v3q1 0 2 1t2 1q0 1 1 3.5t1 3.5q1 1 4 2
q5 8 5 20q-5 2 -11 2v-2q-1 0 -4 -1t-5 -1q-2 -3 -4 -5h-3q0 -1 -1 -2t-1 -2q-1 0 -3 -1l-2 -1q-1 -1 -3 -3.5t-3 -3.5h-3v-2q-1 0 -3 -0.5t-3 -1.5t-2 -3h-3l-4 -6q-1 0 -2.5 -0.5t-2.5 -0.5v-2q-1 -1 -3 -2t-3 -2v-2l-2 -2v-7h-1v-29q0 -66 -2 -76q-3 -1 -8 -4t-8.5 -5
t-8.5 -3.5t-11 -1.5q-3 6 -8 9v121q0 41 2 43q1 5 4 8h2v3q2 1 5 2l4 6h3l4 3h4v2h3v2h4v2h5v1h4v2h3v2h4v2q6 2 11 3v2h5v2h4v2h4v2q5 1 10 3v2h6v2h3v2h4v1q5 2 11 4v2h5v2h4v2h4v1l10 4v2h6v2h3v1h4v2q5 2 11 4v2q5 0 11 1v2q9 3 26 -1t24 -8q1 -1 2 -3q3 -1 8.5 -3
t7.5 -3q1 -2 2 -3h4q0 -1 2 -4h3q1 -1 2 -3t2 -3q2 -2 6.5 -5.5t6.5 -4.5v-4q1 -1 3 -2v-3l4 -2q1 -4 5.5 -14t6.5 -15v-16h2l2 -18h2v-4h2v-5h1v-4h2v-4q1 0 4 -2q1 -3 2 -7q1 0 2.5 -1.5t2.5 -1.5v-4q4 -3 7 -5v-4q1 0 4 -2q9 -10 9 -11h4q1 -1 7 -9h3q2 -2 4 -5
q1 0 3.5 -1t3.5 -1l4 -4h3q1 -1 2 -3h4v-2h4l3 -4h4q0 -1 2 -3q1 -1 5 -2t5 -2v-2q11 -6 17 -7z" />
    <glyph glyph-name="uniE66C" unicode="&#xe66c;" 
d="M597 420.5q0 -16.5 11.5 -28t28 -11.5t28 11.5t11.5 28t-11.5 28t-28 11.5t-28 -11.5t-11.5 -28zM836 616q0 24 -17 40.5t-40 16.5h-534q-23 0 -40 -16.5t-17 -40.5v-391q0 -24 17 -40.5t40 -16.5h194l73 -73l73 73h194q23 0 40 16.5t17 40.5v63v1v327zM793 242
q0 -13 -9.5 -22.5t-22.5 -9.5h-197l-52 -52l-52 52h-197q-13 0 -22.5 9.5t-9.5 22.5v356q0 14 9.5 23t22.5 9h498q13 0 22.5 -9t9.5 -23v-356zM473 420.5q0 -16.5 11.5 -28t27.5 -11.5t27.5 11.5t11.5 28t-11.5 28t-27.5 11.5t-27.5 -11.5t-11.5 -28zM348 420.5
q0 -16.5 11.5 -28t28 -11.5t28 11.5t11.5 28t-11.5 28t-28 11.5t-28 -11.5t-11.5 -28z" />
    <glyph glyph-name="uniE66D" unicode="&#xe66d;" 
d="M436 250q0 67 38 121t99 76q15 35 15 71v34q0 12 -1.5 32t-4.5 30t-8 24.5t-13.5 22t-20.5 15t-28.5 11t-37.5 3.5t-38 -3.5t-28.5 -11t-20 -15t-14 -22t-8.5 -24.5t-4 -30t-1.5 -31.5t-0.5 -34.5q0 -44 22 -84t55 -58v-32q-98 -8 -164 -51t-66 -100h238q-8 28 -8 57z
M645.5 422q-71.5 0 -121.5 -50t-50 -121.5t50 -122t121.5 -50.5t122 50.5t50.5 122t-50.5 121.5t-122 50zM741 231h-191v38h191v-38z" />
    <glyph glyph-name="uniE66E" unicode="&#xe66e;" 
d="M436 250q0 67 38 121t99 76q15 35 15 71v34q0 12 -1.5 32t-4.5 30t-8 24.5t-13.5 22t-20.5 15t-28.5 11t-37.5 3.5t-38 -3.5t-28.5 -11t-20 -15t-14 -22t-8.5 -24.5t-4 -30t-1.5 -31.5t-0.5 -34.5q0 -44 22 -84t55 -58v-32q-98 -8 -164 -51t-66 -100h238q-8 28 -8 57z
M645.5 422q-71.5 0 -121.5 -50t-50 -121.5t50 -122t121.5 -50.5t122 50.5t50.5 122t-50.5 121.5t-122 50zM741 231h-76v-76h-38v76h-77v38h77v77h38v-77h76v-38z" />
    <glyph glyph-name="uniE66F" unicode="&#xe66f;" horiz-adv-x="1152" 
d="M665 230v31q32 18 54 58.5t22 83.5v35q0 12 -1.5 31.5t-4.5 30t-8 25t-13.5 21.5t-20.5 15t-28.5 11t-38 3t-38 -3t-28 -11t-20.5 -15t-14 -21.5t-8 -25t-4 -30t-1.5 -31t-0.5 -35.5q0 -43 22 -83.5t54 -58.5v-31q-97 -8 -163 -51t-66 -101h535q0 58 -65.5 101t-163.5 51
zM402 215q50 33 119 48q-14 16 -24 35q-28 51 -28 105q0 34 0.5 52t5 43.5t12.5 44.5q27 57 95 71q-8 37 -32.5 56.5t-75.5 19.5q-21 0 -38 -3.5t-28.5 -11t-20 -15t-14 -22t-8.5 -24.5t-4 -30t-1.5 -31.5t-0.5 -34.5q0 -44 22 -84t55 -58v-32q-98 -8 -164 -51t-66 -100h167
q13 12 29 22z" />
    <glyph glyph-name="uniE670" unicode="&#xe670;" 
d="M816 658h-169q2 -11 2 -15q0 -45 -31 -76t-76 -31h-91q-44 0 -75 31t-31 76q0 15 1 15h-138q-25 0 -43 -18t-18 -43v-456q0 -25 18 -43t43 -18h608q25 0 43 18t18 43v456q0 25 -18 43t-43 18zM447 201h-174q-14 0 -24.5 11.5t-10.5 26.5q0 21 17.5 35t48.5 26
q25 11 25 29q0 12 -13 26q-22 19 -22 50q0 30 17.5 50t47 20t46.5 -20t17 -50q0 -31 -21 -50q-14 -14 -14 -26q0 -17 26 -29q31 -12 48.5 -26t17.5 -35q2 -14 -8 -26t-24 -12zM786 262q0 -15 -15 -15h-213q-16 0 -16 15v31q0 15 16 15h213q15 0 15 -15v-31zM816 384
q0 -15 -15 -15h-243q-16 0 -16 15v30q0 16 16 16h243q15 0 15 -16v-30zM451 597h91q20 0 33 13t13 32.5t-13 32.5t-33 13h-91q-19 0 -32 -13t-13 -32.5t13 -32.5t32 -13z" />
    <glyph glyph-name="uniE671" unicode="&#xe671;" 
d="M512 -12q-108 0 -199 53t-144 144t-53 199t53 199t144 144t199 53t199 -53t144 -144t53 -199t-53 -199t-144 -144t-199 -53zM435 460l-148 -265l283 115l161 265zM501 332q-19 0 -33 14t-14 32.5t14 32.5t33 14t33 -14t14 -32.5t-14 -32.5t-33 -14z" />
    <glyph glyph-name="uniE672" unicode="&#xe672;" 
d="M512 755q-101 0 -186.5 -49.5t-135 -135t-49.5 -186t49.5 -186t135 -135t186.5 -49.5t186.5 49.5t135 135t49.5 186t-49.5 186t-135 135t-186.5 49.5zM365 360v55h91l-70 136h69l45 -93q11 -22 12 -29q2 7 12 29l46 93h69l-70 -136h84v-55h-109v-45h109v-54h-112v-82h-65
v82h-111v54h111v45h-111z" />
    <glyph glyph-name="uniE673" unicode="&#xe673;" 
d="M365 716l6 -9v-1h1l52 -77h176l53 77v1l6 9l-1 2q1 5 1 7q0 17 -14 24l-1 2q-68 17 -130 17h-2q-27 0 -60 -4.5t-53 -8.5l-19 -4l-1 -2q-14 -7 -14 -24q0 -2 1 -7zM601 609h-178q-106 -37 -181.5 -137.5t-75.5 -209.5q0 -134 82.5 -198t263.5 -64t263.5 64t82.5 198
q0 109 -75.5 209.5t-181.5 137.5zM600 261q13 0 21.5 -8.5t8.5 -20.5t-8.5 -20.5t-21.5 -8.5h-59v-29v-7q0 -15 -10.5 -26t-26 -11t-26 11t-10.5 26q0 3 1 7h-1v29h-59v0q-12 0 -20.5 8.5t-8.5 20.5t8.5 20.5t20.5 8.5v0h59v29h-59v0q-12 0 -20.5 8.5t-8.5 20.5t8.5 20.5
t20.5 8.5v0h54q1 3 2 5l-66 65q-6 6 -4 16t10.5 18.5t19 10.5t16.5 -4l64 -64l60 63q7 7 19 6t21 -10q19 -19 6 -34l-70 -70v-2h59q13 0 21.5 -8.5t8.5 -20.5t-8.5 -20.5t-21.5 -8.5h-59v-29h59zM600 261z" />
    <glyph glyph-name="uniE675" unicode="&#xe675;" horiz-adv-x="1025" 
d="M393 366q-28 -3 -50 -13t-35 -23t-21.5 -28t-11.5 -29.5t-4.5 -26.5t-0.5 -19v-7q0 -2 0.5 -5t2 -11t5 -15.5t11.5 -16.5t19 -14q63 -31 118 -19t89 56q16 21 18 52t-10 60t-46.5 47t-83.5 12zM358 183q-19 -2 -33 8t-14 26q0 17 13 31t32 16q22 2 35.5 -8.5t13.5 -27.5
q0 -16 -13.5 -29t-33.5 -16zM440 253q-6 -5 -13.5 -4t-10.5 7q-4 5 -2.5 13t8.5 13q8 6 15 5t10.5 -7t1.5 -14t-9 -13zM766 722q-48 11 -113 -1q-1 0 -2 -1t-2 -1q-11 -3 -17.5 -12t-6.5 -20q0 -14 9.5 -24t23.5 -10q18 3 30 8q5 0 16.5 1t31.5 -4t40 -12.5t41 -25t35 -41.5
q25 -57 10 -110q-6 -16 -6 -32q0 -13 9.5 -21t23.5 -8t21.5 5t9.5 22h1q17 54 13 97.5t-18.5 76t-41 56t-53 37t-55.5 20.5zM783 455q8 0 14.5 5.5t7.5 13.5q1 2 1 3q3 31 -2 55t-16 37t-24.5 21.5t-28 11t-27 3t-20.5 -0.5l-7 -1q-10 0 -16.5 -6.5t-6.5 -16t6.5 -16
t16.5 -6.5q30 5 47 -0.5t24.5 -18.5t9 -26.5t0.5 -24.5l-2 -10q0 -9 6.5 -16t16.5 -7zM715 399q-14 3 -18.5 9t-1.5 10l3 5q2 2 4 6t5.5 15t4 21.5t-4 24.5t-15.5 24q-13 14 -35 18t-43.5 0.5t-41 -8.5t-31.5 -10l-13 -6q-9 -3 -15.5 -4t-10 0.5t-5 3t-1.5 7t0.5 9t2.5 12
t3 13.5q0 14 -2 26t-10.5 26t-22 21t-38.5 6.5t-59 -11.5q-32 -12 -67 -34.5t-61 -47.5t-47 -47.5t-32.5 -37.5t-10.5 -15q-65 -86 -62 -162q0 -4 1 -4q5 -47 27.5 -83.5t54 -59t74 -38.5t81.5 -23.5t83 -10.5q71 -6 147.5 11t143 58.5t93.5 99.5q16 34 16.5 64t-10 48.5
t-27.5 33t-32 21.5t-27 9zM421 99q-104 -5 -177 40.5t-73 114.5t72.5 118.5t177.5 54.5q106 5 178 -35t72 -108q0 -69 -73.5 -124.5t-176.5 -60.5zM421 99z" />
    <glyph glyph-name="uniE676" unicode="&#xe676;" 
d="M507 783q-8 -3 -16 -17q-6 -14 -58 -125.5t-54 -113.5q-6 -5 -26 -8.5t-147 -17.5q-85 -10 -90 -15q-3 -3 -4 -9t2 -12q1 -2 96 -96t95 -99q0 -11 -36 -204q-10 -51 -10.5 -61t4.5 -16q8 -9 32 4q12 6 92.5 54.5t88.5 53.5q28 18 41 16q8 -2 20 -9q54 -30 170 -103
q24 -15 33.5 -18.5t17.5 -1.5q10 2 6 33q0 4 -3 22t-10 56t-13 72q-5 31 -4 37.5t13 10.5q30 13 27 20q-2 2 -37 -5q-51 -10 -104 -15q-77 -7 -172 -4q-112 4 -119 9q-6 4 2 12q3 3 62 47q162 120 171 129q7 7 1 9q-5 2 -31 5q-68 9 -176 15q-58 2 -66 4q-12 2 5 5
q63 14 187 16q20 1 34 0q87 -3 147 -11q25 -3 30 -4.5t5 -4.5q-2 -4 -57 -45t-116 -84l-60 -43q-11 -8 -11 -11q0 -5 37 -10q56 -7 134.5 -9.5t83.5 2.5v7l-2 14l-2 7l96 97q96 98 96 106t-3.5 11t-11.5 6q-2 0 -126 14t-127 15q-6 3 -18 28t-53 124q-43 101 -49 107
q-8 8 -17 4v0zM507 783z" />
    <glyph glyph-name="uniE677" unicode="&#xe677;" 
d="M326 401q4 50 33.5 91.5t74.5 61.5q35 75 127 171q4 4 11 11.5t9 9.5q-34 7 -69 7q-83 0 -156 -35t-125 -96l15 -41q3 -12 9 -31.5t27 -68t44 -80.5zM402 234q-64 46 -75 124q-57 67 -101 214q-7 25 -9 32q-73 -97 -73 -219q0 -68 24 -131l43 -7q4 0 11.5 -1.5t30.5 -5.5
t44 -5.5t52 -3t53 2.5zM467 566q23 6 45 6q52 0 97 -28q83 14 222 -15q8 -2 22 -5q-33 81 -99 138.5t-150 78.5l-25 -29q-8 -8 -21 -21.5t-43 -52t-48 -72.5zM692 334q-18 -61 -70 -100q-30 -84 -152 -196q-13 -11 -18 -16q30 -5 60 -5q129 0 230 81q-1 5 -1.5 10.5
t-0.5 7.5l-1 3q0 14 -2 38.5t-14 82t-31 94.5zM586 213q-36 -15 -74 -15q-39 0 -75 16q-85 -16 -227 12q-24 5 -33 6q35 -77 101.5 -131.5t149.5 -74.5q7 7 13 13.5t9 9.5l3 3q10 9 26.5 24t52 58t54.5 79zM637 523q62 -56 62 -138q0 -2 -1 -12q51 -76 63 -250v-9
q56 52 87.5 122t31.5 149q0 60 -19 117l-31 5q-12 3 -32 7t-71 8.5t-90 0.5z" />
    <glyph glyph-name="uniE678" unicode="&#xe678;" horiz-adv-x="1152" 
d="M903 645h-695q-18 0 -31 -13t-13 -31v-434q0 -18 13 -31t31 -13h695q18 0 31 13t13 31v434q0 18 -13 31t-31 13zM599 558h87v-87h-87v87zM729 427v-86h-87v86h87zM469 558h86v-87h-86v87zM599 427v-86h-87v86h87zM338 558h87v-87h-87v87zM469 427v-86h-87v86h87zM251 558
h44v-87h-44v87zM251 427h87v-86h-87v86zM295 210h-44v87h44v-87zM686 210h-348v87h348v-87zM860 210h-131v87h131v-87zM860 341h-87v86h87v-86zM860 471h-131v87h131v-87z" />
    <glyph glyph-name="uniE679" unicode="&#xe679;" horiz-adv-x="1025" 
d="M818 101h-612v209h56v-154h500v154h56v-209zM262 310.5q0 -11.5 -8 -19.5t-19.5 -8t-20 8t-8.5 19.5t8.5 19.5t20 8t19.5 -8t8 -19.5zM818 310.5q0 -11.5 -8.5 -19.5t-20 -8t-19.5 8t-8 19.5t8 19.5t19.5 8t20 -8t8.5 -19.5zM513 243l-150 149l39 40l111 -111l109 109
l39 -39zM484 638h56v-356h-56v356zM410 412q0 -11 -8 -19.5t-19.5 -8.5t-19.5 8.5t-8 19.5t8 19.5t19.5 8.5t19.5 -8.5t8 -19.5zM669 412q0 -11 -8 -19.5t-19.5 -8.5t-19.5 8.5t-8 19.5t8 19.5t19.5 8.5t19.5 -8.5t8 -19.5zM540 639q0 -11 -8.5 -19t-19.5 -8t-19.5 8
t-8.5 19.5t8.5 19.5t19.5 8t19.5 -8t8.5 -20z" />
    <glyph glyph-name="uniE67A" unicode="&#xe67a;" 
d="M747 592q12 -11 12 -28t-12 -28l-146 -146l71 -306l-51 -51l-125 252l-98 -99v-76l-40 -40l-44 89l-88 44l42 41l71 -1l100 99l-253 124l52 51l308 -69l145 144q11 12 27.5 12t28.5 -12z" />
    <glyph glyph-name="uniE6A4" unicode="&#xe6a4;" horiz-adv-x="1171" 
d="M373 576q0 18 -11.5 29t-29.5 11q-19 0 -33.5 -11t-14.5 -29q0 -17 14.5 -28.5t33.5 -11.5q18 0 29.5 11t11.5 29zM700 352q0 13 -11 22.5t-29 9.5q-12 0 -21.5 -10t-9.5 -22t9.5 -22t21.5 -10q18 0 29 9.5t11 22.5zM596 576q0 18 -10.5 29t-28.5 11q-19 0 -34 -11
t-15 -29q0 -17 15 -28.5t34 -11.5q18 0 28.5 11t10.5 29zM877 352q0 13 -11.5 22.5t-29.5 9.5q-11 0 -21 -10t-10 -22t10 -22t21 -10q18 0 29.5 9.5t11.5 22.5zM759 527q-13 2 -31 2q-74 0 -137 -34t-99 -92t-36 -127q0 -34 11 -67q-16 -1 -30 -1q-12 0 -22.5 0.5t-24.5 3
t-19.5 3t-24 4.5t-22.5 5l-111 -56l32 96q-129 90 -129 216q0 75 43.5 137.5t117 98.5t160.5 36q77 0 146 -29t116 -80.5t60 -115.5zM1021 280q0 -52 -30.5 -99t-82.5 -85l25 -80l-88 48q-66 -16 -96 -16q-75 0 -137.5 31t-98.5 84.5t-36 116.5t36 116.5t98.5 84.5t137.5 31
q71 0 133.5 -31t100.5 -84.5t38 -116.5z" />
    <glyph glyph-name="uniE6CD" unicode="&#xe6cd;" 
d="M512 93q27 0 45.5 19t18.5 45.5t-18.5 45.5t-45.5 19t-45.5 -19t-18.5 -45.5t18.5 -45.5t45.5 -19zM512 301q27 0 45.5 19t18.5 45.5t-18.5 45.5t-45.5 19t-45.5 -19t-18.5 -45.5t18.5 -45.5t45.5 -19zM512 509q27 0 45.5 18.5t18.5 45.5t-18.5 45.5t-45.5 18.5
t-45.5 -18.5t-18.5 -45.5t18.5 -45.5t45.5 -18.5z" />
    <glyph glyph-name="uniE6CE" unicode="&#xe6ce;" 
d="M259 85h506q12 0 20 8.5t8 20t-8 19.5t-20 8h-506q-12 0 -20 -8t-8 -19.5t8 -20t20 -8.5zM492 213q4 -4 9 -6q11 -5 22 0q5 2 9 6l225 225q8 8 8 20t-8 20t-20 8t-20 -8l-177 -177v382q0 11 -8 19.5t-20 8.5t-20 -8.5t-8 -19.5v-382l-177 177q-8 8 -20 8t-20 -8.5t-8 -20
t8 -19.5z" />
    <glyph glyph-name="uniE6CF" unicode="&#xe6cf;" 
d="M287 271l225 281l225 -281h-450z" />
    <glyph glyph-name="uniE6D0" unicode="&#xe6d0;" 
d="M624 609l-281 -225l281 -226v451z" />
    <glyph glyph-name="uniE6D1" unicode="&#xe6d1;" horiz-adv-x="1028" 
d="M858 359q8 9 8 23v1q0 13 -8 22l-244 244q-10 10 -24 10q-12 0 -21 -8q-15 -15 -5 -35l63 -63l8 -8l133 -133h-580q-13 0 -21.5 -9t-8.5 -21t8.5 -20.5t21.5 -8.5h580l-199 -200q-7 -8 -6 -19.5t9 -19.5t20.5 -8t20.5 8l34 34z" />
    <glyph glyph-name="uniE6D2" unicode="&#xe6d2;" horiz-adv-x="1028" 
d="M537 730q-9 8 -23 8h-1q-13 0 -22 -8l-244 -244q-10 -10 -10 -24q0 -12 8 -21q15 -15 35 -5l63 63l8 8l133 133v-580q0 -13 9 -21.5t21 -8.5t20.5 8.5t8.5 21.5v580l200 -199q8 -7 19.5 -6t19.5 9t8 20.5t-8 20.5l-34 34z" />
    <glyph glyph-name="uniE6D3" unicode="&#xe6d3;" horiz-adv-x="1028" 
d="M166 409q-8 -9 -8 -23v-1q0 -13 8 -22l244 -244q10 -10 24 -10q12 0 21 8q15 15 5 35l-63 63l-8 8l-133 133h580q13 0 21.5 9t8.5 21t-8.5 20.5t-21.5 8.5h-580l199 200q7 8 6 19.5t-9 19.5t-20.5 8t-20.5 -8l-34 -34z" />
    <glyph glyph-name="uniE6D4" unicode="&#xe6d4;" horiz-adv-x="1028" 
d="M487 38q9 -8 23 -8h1q13 0 22 8l244 244q10 10 10 24q0 12 -8 21q-15 15 -35 5l-63 -63l-8 -8l-133 -133v580q0 13 -9 21.5t-21 8.5t-20.5 -8.5t-8.5 -21.5v-580l-200 199q-8 7 -19.5 6t-19.5 -9t-8 -20.5t8 -20.5l34 -34z" />
    <glyph glyph-name="uniE6D5" unicode="&#xe6d5;" 
d="M305 382q-2 -19 11 -32l333 -333q11 -11 27.5 -11t28.5 11.5t12 28t-12 28.5l-306 306l306 305q11 12 11 28.5t-11.5 28t-28 11.5t-27.5 -11l-333 -333q-11 -11 -11 -27z" />
    <glyph glyph-name="uniE6D6" unicode="&#xe6d6;" 
d="M514 213q15 -1 26 10l274 274q9 9 9 22.5t-9.5 23.5t-23 10t-22.5 -10l-252 -252l-252 252q-10 9 -23.5 9t-23 -9.5t-9.5 -23t9 -22.5l274 -274q9 -10 23 -10z" />
    <glyph glyph-name="uniE6D7" unicode="&#xe6d7;" 
d="M510 555q-15 1 -26 -10l-274 -274q-9 -9 -9 -22.5t9.5 -23.5t23 -10t22.5 10l252 252l252 -252q10 -9 23.5 -9t23 9.5t9.5 23t-9 22.5l-274 274q-9 10 -23 10z" />
    <glyph glyph-name="uniE6D8" unicode="&#xe6d8;" 
d="M803 384q0 27 -19 45.5t-45.5 18.5t-45.5 -18.5t-19 -45.5t19 -45.5t45.5 -18.5t45.5 18.5t19 45.5zM595 384q0 27 -19 45.5t-45.5 18.5t-45.5 -18.5t-19 -45.5t19 -45.5t45.5 -18.5t45.5 18.5t19 45.5zM387 384q0 27 -18.5 45.5t-45.5 18.5t-45.5 -18.5t-18.5 -45.5
t18.5 -45.5t45.5 -18.5t45.5 18.5t18.5 45.5z" />
  </font>
</defs>
</svg>
