<svg width="128" height="128" xmlns="http://www.w3.org/2000/svg">
 <!-- Created with Method Draw - http://github.com/duopixel/Method-Draw/ -->

 <g>
  <title>background</title>
  <rect fill="none" id="canvas_background" height="130" width="130" y="-1" x="-1"/>
  <g display="none" overflow="visible" y="0" x="0" height="100%" width="100%" id="canvasGrid">
   <rect fill="url(#gridpattern)" stroke-width="0" y="0" x="0" height="100%" width="100%"/>
  </g>
 </g>
 <g>
  <title>stanhua</title>
  <defs>
   <style type="text/css"/>
  </defs>
  <g id="svg_12">
   <g transform="matrix(1.0850693616602172,0,0,1.0850693616602172,0,0) " id="svg_10">
    <title transform="translate(0,0.9216000437736511) translate(0,0.9216000437736511) translate(0,0.9216000437736511) translate(0,0.9216000437736511) translate(0,-0.017604492604732513) translate(0.00002680664329091087,0) translate(0,-125.31449127197266) translate(-208.28164672851562,0) translate(203.26402282714844,0) translate(0,118.42937469482422) ">background</title>
    <rect fill="none" id="svg_8" height="130" width="130" y="-4.216321" x="-6.017597"/>
   </g>
   <g transform="matrix(1.0850693616602172,0,0,1.0850693616602172,0,0) " id="svg_11">
    <title transform="translate(0,0.9216000437736511) translate(0,0.9216000437736511) translate(0,0.9216000437736511) translate(0,0.9216000437736511) translate(0,-0.017604492604732513) translate(0.00002680664329091087,0) translate(0,-125.31449127197266) translate(-208.28164672851562,0) translate(203.26402282714844,0) translate(0,118.42937469482422) ">Layer 1</title>
    <text fill="#4d8cd9" stroke="null" stroke-width="0" stroke-opacity="null" x="29.654278" y="104.429511" id="svg_7" font-size="120" font-family="Helvetica, Arial, sans-serif" text-anchor="start" xml:space="preserve">H</text>
    <text fill="#4d8cd9" stroke="null" stroke-width="0" stroke-opacity="null" x="3.482403" y="104.429511" id="svg_6" font-size="120" font-family="Helvetica, Arial, sans-serif" text-anchor="start" xml:space="preserve">S</text>
   </g>
  </g>
 </g>
</svg>